<svg xmlns="http://www.w3.org/2000/svg" xmlns:xlink="http://www.w3.org/1999/xlink" width="595" zoomAndPan="magnify" viewBox="0 0 446.25 399.749989" height="533" preserveAspectRatio="xMidYMid meet" version="1.0"><defs><clipPath id="c6172773b6"><path d="M 0 345 L 3 345 L 3 348.4375 L 0 348.4375 Z M 0 345 " clip-rule="nonzero"/></clipPath><clipPath id="117f4f9545"><path d="M 7 345 L 11 345 L 11 348.4375 L 7 348.4375 Z M 7 345 " clip-rule="nonzero"/></clipPath><clipPath id="f74f0ebf1c"><path d="M 14 345 L 18 345 L 18 348.4375 L 14 348.4375 Z M 14 345 " clip-rule="nonzero"/></clipPath><clipPath id="ca754ba645"><path d="M 22 345 L 25 345 L 25 348.4375 L 22 348.4375 Z M 22 345 " clip-rule="nonzero"/></clipPath><clipPath id="b1d58fef4e"><path d="M 29 345 L 33 345 L 33 348.4375 L 29 348.4375 Z M 29 345 " clip-rule="nonzero"/></clipPath><clipPath id="dcb1611913"><path d="M 36 345 L 40 345 L 40 348.4375 L 36 348.4375 Z M 36 345 " clip-rule="nonzero"/></clipPath><clipPath id="e12f9239ef"><path d="M 44 345 L 48 345 L 48 348.4375 L 44 348.4375 Z M 44 345 " clip-rule="nonzero"/></clipPath><clipPath id="dfdcfc2b6a"><path d="M 51 345 L 55 345 L 55 348.4375 L 51 348.4375 Z M 51 345 " clip-rule="nonzero"/></clipPath><clipPath id="4d0b3c23af"><path d="M 58 345 L 62 345 L 62 348.4375 L 58 348.4375 Z M 58 345 " clip-rule="nonzero"/></clipPath><clipPath id="c8be8e090e"><path d="M 0 322.980469 L 3 322.980469 L 3 326 L 0 326 Z M 0 322.980469 " clip-rule="nonzero"/></clipPath><clipPath id="bb371e9090"><path d="M 7 322.980469 L 11 322.980469 L 11 326 L 7 326 Z M 7 322.980469 " clip-rule="nonzero"/></clipPath><clipPath id="938716b7e2"><path d="M 14 322.980469 L 18 322.980469 L 18 326 L 14 326 Z M 14 322.980469 " clip-rule="nonzero"/></clipPath><clipPath id="2fb7477f12"><path d="M 22 322.980469 L 25 322.980469 L 25 326 L 22 326 Z M 22 322.980469 " clip-rule="nonzero"/></clipPath><clipPath id="6207747283"><path d="M 29 322.980469 L 33 322.980469 L 33 326 L 29 326 Z M 29 322.980469 " clip-rule="nonzero"/></clipPath><clipPath id="f83bedf186"><path d="M 36 322.980469 L 40 322.980469 L 40 326 L 36 326 Z M 36 322.980469 " clip-rule="nonzero"/></clipPath><clipPath id="55e12de224"><path d="M 44 322.980469 L 48 322.980469 L 48 326 L 44 326 Z M 44 322.980469 " clip-rule="nonzero"/></clipPath><clipPath id="5c00df10e1"><path d="M 51 322.980469 L 55 322.980469 L 55 326 L 51 326 Z M 51 322.980469 " clip-rule="nonzero"/></clipPath><clipPath id="6acd75fa56"><path d="M 58 322.980469 L 62 322.980469 L 62 326 L 58 326 Z M 58 322.980469 " clip-rule="nonzero"/></clipPath></defs><g clip-path="url(#c6172773b6)"><path fill="#fdb11d" d="M 2.855469 347.070312 C 2.855469 347.257812 2.820312 347.441406 2.746094 347.617188 C 2.675781 347.792969 2.570312 347.945312 2.4375 348.078125 C 2.304688 348.214844 2.148438 348.316406 1.972656 348.390625 C 1.800781 348.460938 1.617188 348.5 1.425781 348.5 C 1.238281 348.5 1.054688 348.460938 0.882812 348.390625 C 0.707031 348.316406 0.550781 348.214844 0.417969 348.078125 C 0.285156 347.945312 0.179688 347.792969 0.109375 347.617188 C 0.0351562 347.441406 0 347.257812 0 347.070312 C 0 346.878906 0.0351562 346.699219 0.109375 346.523438 C 0.179688 346.347656 0.285156 346.195312 0.417969 346.058594 C 0.550781 345.925781 0.707031 345.824219 0.882812 345.75 C 1.054688 345.679688 1.238281 345.640625 1.425781 345.640625 C 1.617188 345.640625 1.800781 345.679688 1.972656 345.75 C 2.148438 345.824219 2.304688 345.925781 2.4375 346.058594 C 2.570312 346.195312 2.675781 346.347656 2.746094 346.523438 C 2.820312 346.699219 2.855469 346.878906 2.855469 347.070312 Z M 2.855469 347.070312 " fill-opacity="1" fill-rule="nonzero"/></g><g clip-path="url(#117f4f9545)"><path fill="#fdb11d" d="M 10.222656 347.070312 C 10.222656 347.257812 10.1875 347.441406 10.113281 347.617188 C 10.042969 347.792969 9.9375 347.945312 9.804688 348.078125 C 9.671875 348.214844 9.515625 348.316406 9.339844 348.390625 C 9.167969 348.460938 8.984375 348.5 8.792969 348.5 C 8.605469 348.5 8.421875 348.460938 8.25 348.390625 C 8.074219 348.316406 7.917969 348.214844 7.785156 348.078125 C 7.652344 347.945312 7.546875 347.792969 7.476562 347.617188 C 7.402344 347.441406 7.367188 347.257812 7.367188 347.070312 C 7.367188 346.878906 7.402344 346.699219 7.476562 346.523438 C 7.546875 346.347656 7.652344 346.195312 7.785156 346.058594 C 7.917969 345.925781 8.074219 345.824219 8.25 345.75 C 8.421875 345.679688 8.605469 345.640625 8.792969 345.640625 C 8.984375 345.640625 9.167969 345.679688 9.339844 345.75 C 9.515625 345.824219 9.671875 345.925781 9.804688 346.058594 C 9.9375 346.195312 10.042969 346.347656 10.113281 346.523438 C 10.1875 346.699219 10.222656 346.878906 10.222656 347.070312 Z M 10.222656 347.070312 " fill-opacity="1" fill-rule="nonzero"/></g><g clip-path="url(#f74f0ebf1c)"><path fill="#fdb11d" d="M 17.589844 347.070312 C 17.589844 347.257812 17.554688 347.441406 17.480469 347.617188 C 17.410156 347.792969 17.304688 347.945312 17.171875 348.078125 C 17.039062 348.214844 16.882812 348.316406 16.707031 348.390625 C 16.535156 348.460938 16.351562 348.5 16.160156 348.5 C 15.972656 348.5 15.789062 348.460938 15.617188 348.390625 C 15.441406 348.316406 15.285156 348.214844 15.152344 348.078125 C 15.019531 347.945312 14.914062 347.792969 14.84375 347.617188 C 14.769531 347.441406 14.734375 347.257812 14.734375 347.070312 C 14.734375 346.878906 14.769531 346.699219 14.84375 346.523438 C 14.914062 346.347656 15.019531 346.195312 15.152344 346.058594 C 15.285156 345.925781 15.441406 345.824219 15.617188 345.75 C 15.789062 345.679688 15.972656 345.640625 16.160156 345.640625 C 16.351562 345.640625 16.535156 345.679688 16.707031 345.75 C 16.882812 345.824219 17.039062 345.925781 17.171875 346.058594 C 17.304688 346.195312 17.410156 346.347656 17.480469 346.523438 C 17.554688 346.699219 17.589844 346.878906 17.589844 347.070312 Z M 17.589844 347.070312 " fill-opacity="1" fill-rule="nonzero"/></g><g clip-path="url(#ca754ba645)"><path fill="#fdb11d" d="M 24.957031 347.070312 C 24.957031 347.257812 24.921875 347.441406 24.847656 347.617188 C 24.777344 347.792969 24.671875 347.945312 24.539062 348.078125 C 24.40625 348.214844 24.25 348.316406 24.074219 348.390625 C 23.902344 348.460938 23.71875 348.5 23.527344 348.5 C 23.339844 348.5 23.15625 348.460938 22.984375 348.390625 C 22.808594 348.316406 22.652344 348.214844 22.519531 348.078125 C 22.386719 347.945312 22.28125 347.792969 22.210938 347.617188 C 22.136719 347.441406 22.101562 347.257812 22.101562 347.070312 C 22.101562 346.878906 22.136719 346.699219 22.210938 346.523438 C 22.28125 346.347656 22.386719 346.195312 22.519531 346.058594 C 22.652344 345.925781 22.808594 345.824219 22.984375 345.75 C 23.15625 345.679688 23.339844 345.640625 23.527344 345.640625 C 23.71875 345.640625 23.902344 345.679688 24.074219 345.75 C 24.25 345.824219 24.40625 345.925781 24.539062 346.058594 C 24.671875 346.195312 24.777344 346.347656 24.847656 346.523438 C 24.921875 346.699219 24.957031 346.878906 24.957031 347.070312 Z M 24.957031 347.070312 " fill-opacity="1" fill-rule="nonzero"/></g><g clip-path="url(#b1d58fef4e)"><path fill="#fdb11d" d="M 32.324219 347.070312 C 32.324219 347.257812 32.289062 347.441406 32.214844 347.617188 C 32.144531 347.792969 32.039062 347.945312 31.90625 348.078125 C 31.773438 348.214844 31.617188 348.316406 31.441406 348.390625 C 31.269531 348.460938 31.085938 348.5 30.894531 348.5 C 30.707031 348.5 30.523438 348.460938 30.347656 348.390625 C 30.175781 348.316406 30.019531 348.214844 29.886719 348.078125 C 29.753906 347.945312 29.648438 347.792969 29.578125 347.617188 C 29.503906 347.441406 29.46875 347.257812 29.46875 347.070312 C 29.46875 346.878906 29.503906 346.699219 29.578125 346.523438 C 29.648438 346.347656 29.753906 346.195312 29.886719 346.058594 C 30.019531 345.925781 30.175781 345.824219 30.347656 345.75 C 30.523438 345.679688 30.707031 345.640625 30.894531 345.640625 C 31.085938 345.640625 31.269531 345.679688 31.441406 345.75 C 31.617188 345.824219 31.773438 345.925781 31.90625 346.058594 C 32.039062 346.195312 32.144531 346.347656 32.214844 346.523438 C 32.289062 346.699219 32.324219 346.878906 32.324219 347.070312 Z M 32.324219 347.070312 " fill-opacity="1" fill-rule="nonzero"/></g><g clip-path="url(#dcb1611913)"><path fill="#fdb11d" d="M 39.691406 347.070312 C 39.691406 347.257812 39.65625 347.441406 39.582031 347.617188 C 39.511719 347.792969 39.40625 347.945312 39.273438 348.078125 C 39.140625 348.214844 38.984375 348.316406 38.808594 348.390625 C 38.636719 348.460938 38.453125 348.5 38.261719 348.5 C 38.074219 348.5 37.890625 348.460938 37.714844 348.390625 C 37.542969 348.316406 37.386719 348.214844 37.253906 348.078125 C 37.121094 347.945312 37.015625 347.792969 36.945312 347.617188 C 36.871094 347.441406 36.835938 347.257812 36.835938 347.070312 C 36.835938 346.878906 36.871094 346.699219 36.945312 346.523438 C 37.015625 346.347656 37.121094 346.195312 37.253906 346.058594 C 37.386719 345.925781 37.542969 345.824219 37.714844 345.75 C 37.890625 345.679688 38.074219 345.640625 38.261719 345.640625 C 38.453125 345.640625 38.636719 345.679688 38.808594 345.75 C 38.984375 345.824219 39.140625 345.925781 39.273438 346.058594 C 39.40625 346.195312 39.511719 346.347656 39.582031 346.523438 C 39.65625 346.699219 39.691406 346.878906 39.691406 347.070312 Z M 39.691406 347.070312 " fill-opacity="1" fill-rule="nonzero"/></g><g clip-path="url(#e12f9239ef)"><path fill="#fdb11d" d="M 47.058594 347.070312 C 47.058594 347.257812 47.023438 347.441406 46.949219 347.617188 C 46.878906 347.792969 46.773438 347.945312 46.640625 348.078125 C 46.507812 348.214844 46.351562 348.316406 46.175781 348.390625 C 46.003906 348.460938 45.820312 348.5 45.628906 348.5 C 45.441406 348.5 45.257812 348.460938 45.085938 348.390625 C 44.910156 348.316406 44.753906 348.214844 44.621094 348.078125 C 44.488281 347.945312 44.382812 347.792969 44.3125 347.617188 C 44.238281 347.441406 44.203125 347.257812 44.203125 347.070312 C 44.203125 346.878906 44.238281 346.699219 44.3125 346.523438 C 44.382812 346.347656 44.488281 346.195312 44.621094 346.058594 C 44.753906 345.925781 44.910156 345.824219 45.085938 345.75 C 45.257812 345.679688 45.441406 345.640625 45.628906 345.640625 C 45.820312 345.640625 46.003906 345.679688 46.175781 345.75 C 46.351562 345.824219 46.507812 345.925781 46.640625 346.058594 C 46.773438 346.195312 46.878906 346.347656 46.949219 346.523438 C 47.023438 346.699219 47.058594 346.878906 47.058594 347.070312 Z M 47.058594 347.070312 " fill-opacity="1" fill-rule="nonzero"/></g><g clip-path="url(#dfdcfc2b6a)"><path fill="#fdb11d" d="M 54.425781 347.070312 C 54.425781 347.257812 54.390625 347.441406 54.316406 347.617188 C 54.246094 347.792969 54.140625 347.945312 54.007812 348.078125 C 53.875 348.214844 53.71875 348.316406 53.542969 348.390625 C 53.367188 348.460938 53.1875 348.5 52.996094 348.5 C 52.808594 348.5 52.625 348.460938 52.449219 348.390625 C 52.277344 348.316406 52.121094 348.214844 51.988281 348.078125 C 51.855469 347.945312 51.75 347.792969 51.679688 347.617188 C 51.605469 347.441406 51.570312 347.257812 51.570312 347.070312 C 51.570312 346.878906 51.605469 346.699219 51.679688 346.523438 C 51.75 346.347656 51.855469 346.195312 51.988281 346.058594 C 52.121094 345.925781 52.277344 345.824219 52.449219 345.75 C 52.625 345.679688 52.808594 345.640625 52.996094 345.640625 C 53.1875 345.640625 53.367188 345.679688 53.542969 345.75 C 53.71875 345.824219 53.875 345.925781 54.007812 346.058594 C 54.140625 346.195312 54.246094 346.347656 54.316406 346.523438 C 54.390625 346.699219 54.425781 346.878906 54.425781 347.070312 Z M 54.425781 347.070312 " fill-opacity="1" fill-rule="nonzero"/></g><g clip-path="url(#4d0b3c23af)"><path fill="#fdb11d" d="M 61.792969 347.070312 C 61.792969 347.257812 61.757812 347.441406 61.683594 347.617188 C 61.613281 347.792969 61.507812 347.945312 61.375 348.078125 C 61.242188 348.214844 61.085938 348.316406 60.910156 348.390625 C 60.734375 348.460938 60.554688 348.5 60.363281 348.5 C 60.175781 348.5 59.992188 348.460938 59.816406 348.390625 C 59.644531 348.316406 59.488281 348.214844 59.355469 348.078125 C 59.222656 347.945312 59.117188 347.792969 59.046875 347.617188 C 58.972656 347.441406 58.9375 347.257812 58.9375 347.070312 C 58.9375 346.878906 58.972656 346.699219 59.046875 346.523438 C 59.117188 346.347656 59.222656 346.195312 59.355469 346.058594 C 59.488281 345.925781 59.644531 345.824219 59.816406 345.75 C 59.992188 345.679688 60.175781 345.640625 60.363281 345.640625 C 60.554688 345.640625 60.734375 345.679688 60.910156 345.75 C 61.085938 345.824219 61.242188 345.925781 61.375 346.058594 C 61.507812 346.195312 61.613281 346.347656 61.683594 346.523438 C 61.757812 346.699219 61.792969 346.878906 61.792969 347.070312 Z M 61.792969 347.070312 " fill-opacity="1" fill-rule="nonzero"/></g><path fill="#fdb11d" d="M 2.855469 339.515625 C 2.855469 339.707031 2.820312 339.886719 2.746094 340.0625 C 2.675781 340.238281 2.570312 340.394531 2.4375 340.527344 C 2.304688 340.660156 2.148438 340.761719 1.972656 340.835938 C 1.800781 340.910156 1.617188 340.945312 1.425781 340.945312 C 1.238281 340.945312 1.054688 340.910156 0.882812 340.835938 C 0.707031 340.761719 0.550781 340.660156 0.417969 340.527344 C 0.285156 340.394531 0.179688 340.238281 0.109375 340.0625 C 0.0351562 339.886719 0 339.707031 0 339.515625 C 0 339.328125 0.0351562 339.144531 0.109375 338.96875 C 0.179688 338.796875 0.285156 338.640625 0.417969 338.507812 C 0.550781 338.371094 0.707031 338.269531 0.882812 338.199219 C 1.054688 338.125 1.238281 338.089844 1.425781 338.089844 C 1.617188 338.089844 1.800781 338.125 1.972656 338.199219 C 2.148438 338.269531 2.304688 338.371094 2.4375 338.507812 C 2.570312 338.640625 2.675781 338.796875 2.746094 338.96875 C 2.820312 339.144531 2.855469 339.328125 2.855469 339.515625 Z M 2.855469 339.515625 " fill-opacity="1" fill-rule="nonzero"/><path fill="#fdb11d" d="M 10.222656 339.515625 C 10.222656 339.707031 10.1875 339.886719 10.113281 340.0625 C 10.042969 340.238281 9.9375 340.394531 9.804688 340.527344 C 9.671875 340.660156 9.515625 340.761719 9.339844 340.835938 C 9.167969 340.910156 8.984375 340.945312 8.792969 340.945312 C 8.605469 340.945312 8.421875 340.910156 8.25 340.835938 C 8.074219 340.761719 7.917969 340.660156 7.785156 340.527344 C 7.652344 340.394531 7.546875 340.238281 7.476562 340.0625 C 7.402344 339.886719 7.367188 339.707031 7.367188 339.515625 C 7.367188 339.328125 7.402344 339.144531 7.476562 338.96875 C 7.546875 338.796875 7.652344 338.640625 7.785156 338.507812 C 7.917969 338.371094 8.074219 338.269531 8.25 338.199219 C 8.421875 338.125 8.605469 338.089844 8.792969 338.089844 C 8.984375 338.089844 9.167969 338.125 9.339844 338.199219 C 9.515625 338.269531 9.671875 338.371094 9.804688 338.507812 C 9.9375 338.640625 10.042969 338.796875 10.113281 338.96875 C 10.1875 339.144531 10.222656 339.328125 10.222656 339.515625 Z M 10.222656 339.515625 " fill-opacity="1" fill-rule="nonzero"/><path fill="#fdb11d" d="M 17.589844 339.515625 C 17.589844 339.707031 17.554688 339.886719 17.480469 340.0625 C 17.410156 340.238281 17.304688 340.394531 17.171875 340.527344 C 17.039062 340.660156 16.882812 340.761719 16.707031 340.835938 C 16.535156 340.910156 16.351562 340.945312 16.160156 340.945312 C 15.972656 340.945312 15.789062 340.910156 15.617188 340.835938 C 15.441406 340.761719 15.285156 340.660156 15.152344 340.527344 C 15.019531 340.394531 14.914062 340.238281 14.84375 340.0625 C 14.769531 339.886719 14.734375 339.707031 14.734375 339.515625 C 14.734375 339.328125 14.769531 339.144531 14.84375 338.96875 C 14.914062 338.796875 15.019531 338.640625 15.152344 338.507812 C 15.285156 338.371094 15.441406 338.269531 15.617188 338.199219 C 15.789062 338.125 15.972656 338.089844 16.160156 338.089844 C 16.351562 338.089844 16.535156 338.125 16.707031 338.199219 C 16.882812 338.269531 17.039062 338.371094 17.171875 338.507812 C 17.304688 338.640625 17.410156 338.796875 17.480469 338.96875 C 17.554688 339.144531 17.589844 339.328125 17.589844 339.515625 Z M 17.589844 339.515625 " fill-opacity="1" fill-rule="nonzero"/><path fill="#fdb11d" d="M 24.957031 339.515625 C 24.957031 339.707031 24.921875 339.886719 24.847656 340.0625 C 24.777344 340.238281 24.671875 340.394531 24.539062 340.527344 C 24.40625 340.660156 24.25 340.761719 24.074219 340.835938 C 23.902344 340.910156 23.71875 340.945312 23.527344 340.945312 C 23.339844 340.945312 23.15625 340.910156 22.984375 340.835938 C 22.808594 340.761719 22.652344 340.660156 22.519531 340.527344 C 22.386719 340.394531 22.28125 340.238281 22.210938 340.0625 C 22.136719 339.886719 22.101562 339.707031 22.101562 339.515625 C 22.101562 339.328125 22.136719 339.144531 22.210938 338.96875 C 22.28125 338.796875 22.386719 338.640625 22.519531 338.507812 C 22.652344 338.371094 22.808594 338.269531 22.984375 338.199219 C 23.15625 338.125 23.339844 338.089844 23.527344 338.089844 C 23.71875 338.089844 23.902344 338.125 24.074219 338.199219 C 24.25 338.269531 24.40625 338.371094 24.539062 338.507812 C 24.671875 338.640625 24.777344 338.796875 24.847656 338.96875 C 24.921875 339.144531 24.957031 339.328125 24.957031 339.515625 Z M 24.957031 339.515625 " fill-opacity="1" fill-rule="nonzero"/><path fill="#fdb11d" d="M 32.324219 339.515625 C 32.324219 339.707031 32.289062 339.886719 32.214844 340.0625 C 32.144531 340.238281 32.039062 340.394531 31.90625 340.527344 C 31.773438 340.660156 31.617188 340.761719 31.441406 340.835938 C 31.269531 340.910156 31.085938 340.945312 30.894531 340.945312 C 30.707031 340.945312 30.523438 340.910156 30.347656 340.835938 C 30.175781 340.761719 30.019531 340.660156 29.886719 340.527344 C 29.753906 340.394531 29.648438 340.238281 29.578125 340.0625 C 29.503906 339.886719 29.46875 339.707031 29.46875 339.515625 C 29.46875 339.328125 29.503906 339.144531 29.578125 338.96875 C 29.648438 338.796875 29.753906 338.640625 29.886719 338.507812 C 30.019531 338.371094 30.175781 338.269531 30.347656 338.199219 C 30.523438 338.125 30.707031 338.089844 30.894531 338.089844 C 31.085938 338.089844 31.269531 338.125 31.441406 338.199219 C 31.617188 338.269531 31.773438 338.371094 31.90625 338.507812 C 32.039062 338.640625 32.144531 338.796875 32.214844 338.96875 C 32.289062 339.144531 32.324219 339.328125 32.324219 339.515625 Z M 32.324219 339.515625 " fill-opacity="1" fill-rule="nonzero"/><path fill="#fdb11d" d="M 39.691406 339.515625 C 39.691406 339.707031 39.65625 339.886719 39.582031 340.0625 C 39.511719 340.238281 39.40625 340.394531 39.273438 340.527344 C 39.140625 340.660156 38.984375 340.761719 38.808594 340.835938 C 38.636719 340.910156 38.453125 340.945312 38.261719 340.945312 C 38.074219 340.945312 37.890625 340.910156 37.714844 340.835938 C 37.542969 340.761719 37.386719 340.660156 37.253906 340.527344 C 37.121094 340.394531 37.015625 340.238281 36.945312 340.0625 C 36.871094 339.886719 36.835938 339.707031 36.835938 339.515625 C 36.835938 339.328125 36.871094 339.144531 36.945312 338.96875 C 37.015625 338.796875 37.121094 338.640625 37.253906 338.507812 C 37.386719 338.371094 37.542969 338.269531 37.714844 338.199219 C 37.890625 338.125 38.074219 338.089844 38.261719 338.089844 C 38.453125 338.089844 38.636719 338.125 38.808594 338.199219 C 38.984375 338.269531 39.140625 338.371094 39.273438 338.507812 C 39.40625 338.640625 39.511719 338.796875 39.582031 338.96875 C 39.65625 339.144531 39.691406 339.328125 39.691406 339.515625 Z M 39.691406 339.515625 " fill-opacity="1" fill-rule="nonzero"/><path fill="#fdb11d" d="M 47.058594 339.515625 C 47.058594 339.707031 47.023438 339.886719 46.949219 340.0625 C 46.878906 340.238281 46.773438 340.394531 46.640625 340.527344 C 46.507812 340.660156 46.351562 340.761719 46.175781 340.835938 C 46.003906 340.910156 45.820312 340.945312 45.628906 340.945312 C 45.441406 340.945312 45.257812 340.910156 45.085938 340.835938 C 44.910156 340.761719 44.753906 340.660156 44.621094 340.527344 C 44.488281 340.394531 44.382812 340.238281 44.3125 340.0625 C 44.238281 339.886719 44.203125 339.707031 44.203125 339.515625 C 44.203125 339.328125 44.238281 339.144531 44.3125 338.96875 C 44.382812 338.796875 44.488281 338.640625 44.621094 338.507812 C 44.753906 338.371094 44.910156 338.269531 45.085938 338.199219 C 45.257812 338.125 45.441406 338.089844 45.628906 338.089844 C 45.820312 338.089844 46.003906 338.125 46.175781 338.199219 C 46.351562 338.269531 46.507812 338.371094 46.640625 338.507812 C 46.773438 338.640625 46.878906 338.796875 46.949219 338.96875 C 47.023438 339.144531 47.058594 339.328125 47.058594 339.515625 Z M 47.058594 339.515625 " fill-opacity="1" fill-rule="nonzero"/><path fill="#fdb11d" d="M 54.425781 339.515625 C 54.425781 339.707031 54.390625 339.886719 54.316406 340.0625 C 54.246094 340.238281 54.140625 340.394531 54.007812 340.527344 C 53.875 340.660156 53.71875 340.761719 53.542969 340.835938 C 53.367188 340.910156 53.1875 340.945312 52.996094 340.945312 C 52.808594 340.945312 52.625 340.910156 52.449219 340.835938 C 52.277344 340.761719 52.121094 340.660156 51.988281 340.527344 C 51.855469 340.394531 51.75 340.238281 51.679688 340.0625 C 51.605469 339.886719 51.570312 339.707031 51.570312 339.515625 C 51.570312 339.328125 51.605469 339.144531 51.679688 338.96875 C 51.75 338.796875 51.855469 338.640625 51.988281 338.507812 C 52.121094 338.371094 52.277344 338.269531 52.449219 338.199219 C 52.625 338.125 52.808594 338.089844 52.996094 338.089844 C 53.1875 338.089844 53.367188 338.125 53.542969 338.199219 C 53.71875 338.269531 53.875 338.371094 54.007812 338.507812 C 54.140625 338.640625 54.246094 338.796875 54.316406 338.96875 C 54.390625 339.144531 54.425781 339.328125 54.425781 339.515625 Z M 54.425781 339.515625 " fill-opacity="1" fill-rule="nonzero"/><path fill="#fdb11d" d="M 61.792969 339.515625 C 61.792969 339.707031 61.757812 339.886719 61.683594 340.0625 C 61.613281 340.238281 61.507812 340.394531 61.375 340.527344 C 61.242188 340.660156 61.085938 340.761719 60.910156 340.835938 C 60.734375 340.910156 60.554688 340.945312 60.363281 340.945312 C 60.175781 340.945312 59.992188 340.910156 59.816406 340.835938 C 59.644531 340.761719 59.488281 340.660156 59.355469 340.527344 C 59.222656 340.394531 59.117188 340.238281 59.046875 340.0625 C 58.972656 339.886719 58.9375 339.707031 58.9375 339.515625 C 58.9375 339.328125 58.972656 339.144531 59.046875 338.96875 C 59.117188 338.796875 59.222656 338.640625 59.355469 338.507812 C 59.488281 338.371094 59.644531 338.269531 59.816406 338.199219 C 59.992188 338.125 60.175781 338.089844 60.363281 338.089844 C 60.554688 338.089844 60.734375 338.125 60.910156 338.199219 C 61.085938 338.269531 61.242188 338.371094 61.375 338.507812 C 61.507812 338.640625 61.613281 338.796875 61.683594 338.96875 C 61.757812 339.144531 61.792969 339.328125 61.792969 339.515625 Z M 61.792969 339.515625 " fill-opacity="1" fill-rule="nonzero"/><path fill="#fdb11d" d="M 2.855469 331.964844 C 2.855469 332.152344 2.820312 332.335938 2.746094 332.507812 C 2.675781 332.683594 2.570312 332.839844 2.4375 332.972656 C 2.304688 333.105469 2.148438 333.210938 1.972656 333.28125 C 1.800781 333.355469 1.617188 333.390625 1.425781 333.390625 C 1.238281 333.390625 1.054688 333.355469 0.882812 333.28125 C 0.707031 333.210938 0.550781 333.105469 0.417969 332.972656 C 0.285156 332.839844 0.179688 332.683594 0.109375 332.507812 C 0.0351562 332.335938 0 332.152344 0 331.964844 C 0 331.773438 0.0351562 331.589844 0.109375 331.417969 C 0.179688 331.242188 0.285156 331.085938 0.417969 330.953125 C 0.550781 330.820312 0.707031 330.714844 0.882812 330.644531 C 1.054688 330.570312 1.238281 330.535156 1.425781 330.535156 C 1.617188 330.535156 1.800781 330.570312 1.972656 330.644531 C 2.148438 330.714844 2.304688 330.820312 2.4375 330.953125 C 2.570312 331.085938 2.675781 331.242188 2.746094 331.417969 C 2.820312 331.589844 2.855469 331.773438 2.855469 331.964844 Z M 2.855469 331.964844 " fill-opacity="1" fill-rule="nonzero"/><path fill="#fdb11d" d="M 10.222656 331.964844 C 10.222656 332.152344 10.1875 332.335938 10.113281 332.507812 C 10.042969 332.683594 9.9375 332.839844 9.804688 332.972656 C 9.671875 333.105469 9.515625 333.210938 9.339844 333.28125 C 9.167969 333.355469 8.984375 333.390625 8.792969 333.390625 C 8.605469 333.390625 8.421875 333.355469 8.25 333.28125 C 8.074219 333.210938 7.917969 333.105469 7.785156 332.972656 C 7.652344 332.839844 7.546875 332.683594 7.476562 332.507812 C 7.402344 332.335938 7.367188 332.152344 7.367188 331.964844 C 7.367188 331.773438 7.402344 331.589844 7.476562 331.417969 C 7.546875 331.242188 7.652344 331.085938 7.785156 330.953125 C 7.917969 330.820312 8.074219 330.714844 8.25 330.644531 C 8.421875 330.570312 8.605469 330.535156 8.792969 330.535156 C 8.984375 330.535156 9.167969 330.570312 9.339844 330.644531 C 9.515625 330.714844 9.671875 330.820312 9.804688 330.953125 C 9.9375 331.085938 10.042969 331.242188 10.113281 331.417969 C 10.1875 331.589844 10.222656 331.773438 10.222656 331.964844 Z M 10.222656 331.964844 " fill-opacity="1" fill-rule="nonzero"/><path fill="#fdb11d" d="M 17.589844 331.964844 C 17.589844 332.152344 17.554688 332.335938 17.480469 332.507812 C 17.410156 332.683594 17.304688 332.839844 17.171875 332.972656 C 17.039062 333.105469 16.882812 333.210938 16.707031 333.28125 C 16.535156 333.355469 16.351562 333.390625 16.160156 333.390625 C 15.972656 333.390625 15.789062 333.355469 15.617188 333.28125 C 15.441406 333.210938 15.285156 333.105469 15.152344 332.972656 C 15.019531 332.839844 14.914062 332.683594 14.84375 332.507812 C 14.769531 332.335938 14.734375 332.152344 14.734375 331.964844 C 14.734375 331.773438 14.769531 331.589844 14.84375 331.417969 C 14.914062 331.242188 15.019531 331.085938 15.152344 330.953125 C 15.285156 330.820312 15.441406 330.714844 15.617188 330.644531 C 15.789062 330.570312 15.972656 330.535156 16.160156 330.535156 C 16.351562 330.535156 16.535156 330.570312 16.707031 330.644531 C 16.882812 330.714844 17.039062 330.820312 17.171875 330.953125 C 17.304688 331.085938 17.410156 331.242188 17.480469 331.417969 C 17.554688 331.589844 17.589844 331.773438 17.589844 331.964844 Z M 17.589844 331.964844 " fill-opacity="1" fill-rule="nonzero"/><path fill="#fdb11d" d="M 24.957031 331.964844 C 24.957031 332.152344 24.921875 332.335938 24.847656 332.507812 C 24.777344 332.683594 24.671875 332.839844 24.539062 332.972656 C 24.40625 333.105469 24.25 333.210938 24.074219 333.28125 C 23.902344 333.355469 23.71875 333.390625 23.527344 333.390625 C 23.339844 333.390625 23.15625 333.355469 22.984375 333.28125 C 22.808594 333.210938 22.652344 333.105469 22.519531 332.972656 C 22.386719 332.839844 22.28125 332.683594 22.210938 332.507812 C 22.136719 332.335938 22.101562 332.152344 22.101562 331.964844 C 22.101562 331.773438 22.136719 331.589844 22.210938 331.417969 C 22.28125 331.242188 22.386719 331.085938 22.519531 330.953125 C 22.652344 330.820312 22.808594 330.714844 22.984375 330.644531 C 23.15625 330.570312 23.339844 330.535156 23.527344 330.535156 C 23.71875 330.535156 23.902344 330.570312 24.074219 330.644531 C 24.25 330.714844 24.40625 330.820312 24.539062 330.953125 C 24.671875 331.085938 24.777344 331.242188 24.847656 331.417969 C 24.921875 331.589844 24.957031 331.773438 24.957031 331.964844 Z M 24.957031 331.964844 " fill-opacity="1" fill-rule="nonzero"/><path fill="#fdb11d" d="M 32.324219 331.964844 C 32.324219 332.152344 32.289062 332.335938 32.214844 332.507812 C 32.144531 332.683594 32.039062 332.839844 31.90625 332.972656 C 31.773438 333.105469 31.617188 333.210938 31.441406 333.28125 C 31.269531 333.355469 31.085938 333.390625 30.894531 333.390625 C 30.707031 333.390625 30.523438 333.355469 30.347656 333.28125 C 30.175781 333.210938 30.019531 333.105469 29.886719 332.972656 C 29.753906 332.839844 29.648438 332.683594 29.578125 332.507812 C 29.503906 332.335938 29.46875 332.152344 29.46875 331.964844 C 29.46875 331.773438 29.503906 331.589844 29.578125 331.417969 C 29.648438 331.242188 29.753906 331.085938 29.886719 330.953125 C 30.019531 330.820312 30.175781 330.714844 30.347656 330.644531 C 30.523438 330.570312 30.707031 330.535156 30.894531 330.535156 C 31.085938 330.535156 31.269531 330.570312 31.441406 330.644531 C 31.617188 330.714844 31.773438 330.820312 31.90625 330.953125 C 32.039062 331.085938 32.144531 331.242188 32.214844 331.417969 C 32.289062 331.589844 32.324219 331.773438 32.324219 331.964844 Z M 32.324219 331.964844 " fill-opacity="1" fill-rule="nonzero"/><path fill="#fdb11d" d="M 39.691406 331.964844 C 39.691406 332.152344 39.65625 332.335938 39.582031 332.507812 C 39.511719 332.683594 39.40625 332.839844 39.273438 332.972656 C 39.140625 333.105469 38.984375 333.210938 38.808594 333.28125 C 38.636719 333.355469 38.453125 333.390625 38.261719 333.390625 C 38.074219 333.390625 37.890625 333.355469 37.714844 333.28125 C 37.542969 333.210938 37.386719 333.105469 37.253906 332.972656 C 37.121094 332.839844 37.015625 332.683594 36.945312 332.507812 C 36.871094 332.335938 36.835938 332.152344 36.835938 331.964844 C 36.835938 331.773438 36.871094 331.589844 36.945312 331.417969 C 37.015625 331.242188 37.121094 331.085938 37.253906 330.953125 C 37.386719 330.820312 37.542969 330.714844 37.714844 330.644531 C 37.890625 330.570312 38.074219 330.535156 38.261719 330.535156 C 38.453125 330.535156 38.636719 330.570312 38.808594 330.644531 C 38.984375 330.714844 39.140625 330.820312 39.273438 330.953125 C 39.40625 331.085938 39.511719 331.242188 39.582031 331.417969 C 39.65625 331.589844 39.691406 331.773438 39.691406 331.964844 Z M 39.691406 331.964844 " fill-opacity="1" fill-rule="nonzero"/><path fill="#fdb11d" d="M 47.058594 331.964844 C 47.058594 332.152344 47.023438 332.335938 46.949219 332.507812 C 46.878906 332.683594 46.773438 332.839844 46.640625 332.972656 C 46.507812 333.105469 46.351562 333.210938 46.175781 333.28125 C 46.003906 333.355469 45.820312 333.390625 45.628906 333.390625 C 45.441406 333.390625 45.257812 333.355469 45.085938 333.28125 C 44.910156 333.210938 44.753906 333.105469 44.621094 332.972656 C 44.488281 332.839844 44.382812 332.683594 44.3125 332.507812 C 44.238281 332.335938 44.203125 332.152344 44.203125 331.964844 C 44.203125 331.773438 44.238281 331.589844 44.3125 331.417969 C 44.382812 331.242188 44.488281 331.085938 44.621094 330.953125 C 44.753906 330.820312 44.910156 330.714844 45.085938 330.644531 C 45.257812 330.570312 45.441406 330.535156 45.628906 330.535156 C 45.820312 330.535156 46.003906 330.570312 46.175781 330.644531 C 46.351562 330.714844 46.507812 330.820312 46.640625 330.953125 C 46.773438 331.085938 46.878906 331.242188 46.949219 331.417969 C 47.023438 331.589844 47.058594 331.773438 47.058594 331.964844 Z M 47.058594 331.964844 " fill-opacity="1" fill-rule="nonzero"/><path fill="#fdb11d" d="M 54.425781 331.964844 C 54.425781 332.152344 54.390625 332.335938 54.316406 332.507812 C 54.246094 332.683594 54.140625 332.839844 54.007812 332.972656 C 53.875 333.105469 53.71875 333.210938 53.542969 333.28125 C 53.367188 333.355469 53.1875 333.390625 52.996094 333.390625 C 52.808594 333.390625 52.625 333.355469 52.449219 333.28125 C 52.277344 333.210938 52.121094 333.105469 51.988281 332.972656 C 51.855469 332.839844 51.75 332.683594 51.679688 332.507812 C 51.605469 332.335938 51.570312 332.152344 51.570312 331.964844 C 51.570312 331.773438 51.605469 331.589844 51.679688 331.417969 C 51.75 331.242188 51.855469 331.085938 51.988281 330.953125 C 52.121094 330.820312 52.277344 330.714844 52.449219 330.644531 C 52.625 330.570312 52.808594 330.535156 52.996094 330.535156 C 53.1875 330.535156 53.367188 330.570312 53.542969 330.644531 C 53.71875 330.714844 53.875 330.820312 54.007812 330.953125 C 54.140625 331.085938 54.246094 331.242188 54.316406 331.417969 C 54.390625 331.589844 54.425781 331.773438 54.425781 331.964844 Z M 54.425781 331.964844 " fill-opacity="1" fill-rule="nonzero"/><path fill="#fdb11d" d="M 61.792969 331.964844 C 61.792969 332.152344 61.757812 332.335938 61.683594 332.507812 C 61.613281 332.683594 61.507812 332.839844 61.375 332.972656 C 61.242188 333.105469 61.085938 333.210938 60.910156 333.28125 C 60.734375 333.355469 60.554688 333.390625 60.363281 333.390625 C 60.175781 333.390625 59.992188 333.355469 59.816406 333.28125 C 59.644531 333.210938 59.488281 333.105469 59.355469 332.972656 C 59.222656 332.839844 59.117188 332.683594 59.046875 332.507812 C 58.972656 332.335938 58.9375 332.152344 58.9375 331.964844 C 58.9375 331.773438 58.972656 331.589844 59.046875 331.417969 C 59.117188 331.242188 59.222656 331.085938 59.355469 330.953125 C 59.488281 330.820312 59.644531 330.714844 59.816406 330.644531 C 59.992188 330.570312 60.175781 330.535156 60.363281 330.535156 C 60.554688 330.535156 60.734375 330.570312 60.910156 330.644531 C 61.085938 330.714844 61.242188 330.820312 61.375 330.953125 C 61.507812 331.085938 61.613281 331.242188 61.683594 331.417969 C 61.757812 331.589844 61.792969 331.773438 61.792969 331.964844 Z M 61.792969 331.964844 " fill-opacity="1" fill-rule="nonzero"/><g clip-path="url(#c8be8e090e)"><path fill="#fdb11d" d="M 2.855469 324.410156 C 2.855469 324.597656 2.820312 324.78125 2.746094 324.957031 C 2.675781 325.132812 2.570312 325.285156 2.4375 325.417969 C 2.304688 325.554688 2.148438 325.65625 1.972656 325.730469 C 1.800781 325.800781 1.617188 325.839844 1.425781 325.839844 C 1.238281 325.839844 1.054688 325.800781 0.882812 325.730469 C 0.707031 325.65625 0.550781 325.554688 0.417969 325.417969 C 0.285156 325.285156 0.179688 325.132812 0.109375 324.957031 C 0.0351562 324.78125 0 324.597656 0 324.410156 C 0 324.21875 0.0351562 324.039062 0.109375 323.863281 C 0.179688 323.6875 0.285156 323.535156 0.417969 323.398438 C 0.550781 323.265625 0.707031 323.164062 0.882812 323.089844 C 1.054688 323.019531 1.238281 322.980469 1.425781 322.980469 C 1.617188 322.980469 1.800781 323.019531 1.972656 323.089844 C 2.148438 323.164062 2.304688 323.265625 2.4375 323.398438 C 2.570312 323.535156 2.675781 323.6875 2.746094 323.863281 C 2.820312 324.039062 2.855469 324.21875 2.855469 324.410156 Z M 2.855469 324.410156 " fill-opacity="1" fill-rule="nonzero"/></g><g clip-path="url(#bb371e9090)"><path fill="#fdb11d" d="M 10.222656 324.410156 C 10.222656 324.597656 10.1875 324.78125 10.113281 324.957031 C 10.042969 325.132812 9.9375 325.285156 9.804688 325.417969 C 9.671875 325.554688 9.515625 325.65625 9.339844 325.730469 C 9.167969 325.800781 8.984375 325.839844 8.792969 325.839844 C 8.605469 325.839844 8.421875 325.800781 8.25 325.730469 C 8.074219 325.65625 7.917969 325.554688 7.785156 325.417969 C 7.652344 325.285156 7.546875 325.132812 7.476562 324.957031 C 7.402344 324.78125 7.367188 324.597656 7.367188 324.410156 C 7.367188 324.21875 7.402344 324.039062 7.476562 323.863281 C 7.546875 323.6875 7.652344 323.535156 7.785156 323.398438 C 7.917969 323.265625 8.074219 323.164062 8.25 323.089844 C 8.421875 323.019531 8.605469 322.980469 8.792969 322.980469 C 8.984375 322.980469 9.167969 323.019531 9.339844 323.089844 C 9.515625 323.164062 9.671875 323.265625 9.804688 323.398438 C 9.9375 323.535156 10.042969 323.6875 10.113281 323.863281 C 10.1875 324.039062 10.222656 324.21875 10.222656 324.410156 Z M 10.222656 324.410156 " fill-opacity="1" fill-rule="nonzero"/></g><g clip-path="url(#938716b7e2)"><path fill="#fdb11d" d="M 17.589844 324.410156 C 17.589844 324.597656 17.554688 324.78125 17.480469 324.957031 C 17.410156 325.132812 17.304688 325.285156 17.171875 325.417969 C 17.039062 325.554688 16.882812 325.65625 16.707031 325.730469 C 16.535156 325.800781 16.351562 325.839844 16.160156 325.839844 C 15.972656 325.839844 15.789062 325.800781 15.617188 325.730469 C 15.441406 325.65625 15.285156 325.554688 15.152344 325.417969 C 15.019531 325.285156 14.914062 325.132812 14.84375 324.957031 C 14.769531 324.78125 14.734375 324.597656 14.734375 324.410156 C 14.734375 324.21875 14.769531 324.039062 14.84375 323.863281 C 14.914062 323.6875 15.019531 323.535156 15.152344 323.398438 C 15.285156 323.265625 15.441406 323.164062 15.617188 323.089844 C 15.789062 323.019531 15.972656 322.980469 16.160156 322.980469 C 16.351562 322.980469 16.535156 323.019531 16.707031 323.089844 C 16.882812 323.164062 17.039062 323.265625 17.171875 323.398438 C 17.304688 323.535156 17.410156 323.6875 17.480469 323.863281 C 17.554688 324.039062 17.589844 324.21875 17.589844 324.410156 Z M 17.589844 324.410156 " fill-opacity="1" fill-rule="nonzero"/></g><g clip-path="url(#2fb7477f12)"><path fill="#fdb11d" d="M 24.957031 324.410156 C 24.957031 324.597656 24.921875 324.78125 24.847656 324.957031 C 24.777344 325.132812 24.671875 325.285156 24.539062 325.417969 C 24.40625 325.554688 24.25 325.65625 24.074219 325.730469 C 23.902344 325.800781 23.71875 325.839844 23.527344 325.839844 C 23.339844 325.839844 23.15625 325.800781 22.984375 325.730469 C 22.808594 325.65625 22.652344 325.554688 22.519531 325.417969 C 22.386719 325.285156 22.28125 325.132812 22.210938 324.957031 C 22.136719 324.78125 22.101562 324.597656 22.101562 324.410156 C 22.101562 324.21875 22.136719 324.039062 22.210938 323.863281 C 22.28125 323.6875 22.386719 323.535156 22.519531 323.398438 C 22.652344 323.265625 22.808594 323.164062 22.984375 323.089844 C 23.15625 323.019531 23.339844 322.980469 23.527344 322.980469 C 23.71875 322.980469 23.902344 323.019531 24.074219 323.089844 C 24.25 323.164062 24.40625 323.265625 24.539062 323.398438 C 24.671875 323.535156 24.777344 323.6875 24.847656 323.863281 C 24.921875 324.039062 24.957031 324.21875 24.957031 324.410156 Z M 24.957031 324.410156 " fill-opacity="1" fill-rule="nonzero"/></g><g clip-path="url(#6207747283)"><path fill="#fdb11d" d="M 32.324219 324.410156 C 32.324219 324.597656 32.289062 324.78125 32.214844 324.957031 C 32.144531 325.132812 32.039062 325.285156 31.90625 325.417969 C 31.773438 325.554688 31.617188 325.65625 31.441406 325.730469 C 31.269531 325.800781 31.085938 325.839844 30.894531 325.839844 C 30.707031 325.839844 30.523438 325.800781 30.347656 325.730469 C 30.175781 325.65625 30.019531 325.554688 29.886719 325.417969 C 29.753906 325.285156 29.648438 325.132812 29.578125 324.957031 C 29.503906 324.78125 29.46875 324.597656 29.46875 324.410156 C 29.46875 324.21875 29.503906 324.039062 29.578125 323.863281 C 29.648438 323.6875 29.753906 323.535156 29.886719 323.398438 C 30.019531 323.265625 30.175781 323.164062 30.347656 323.089844 C 30.523438 323.019531 30.707031 322.980469 30.894531 322.980469 C 31.085938 322.980469 31.269531 323.019531 31.441406 323.089844 C 31.617188 323.164062 31.773438 323.265625 31.90625 323.398438 C 32.039062 323.535156 32.144531 323.6875 32.214844 323.863281 C 32.289062 324.039062 32.324219 324.21875 32.324219 324.410156 Z M 32.324219 324.410156 " fill-opacity="1" fill-rule="nonzero"/></g><g clip-path="url(#f83bedf186)"><path fill="#fdb11d" d="M 39.691406 324.410156 C 39.691406 324.597656 39.65625 324.78125 39.582031 324.957031 C 39.511719 325.132812 39.40625 325.285156 39.273438 325.417969 C 39.140625 325.554688 38.984375 325.65625 38.808594 325.730469 C 38.636719 325.800781 38.453125 325.839844 38.261719 325.839844 C 38.074219 325.839844 37.890625 325.800781 37.714844 325.730469 C 37.542969 325.65625 37.386719 325.554688 37.253906 325.417969 C 37.121094 325.285156 37.015625 325.132812 36.945312 324.957031 C 36.871094 324.78125 36.835938 324.597656 36.835938 324.410156 C 36.835938 324.21875 36.871094 324.039062 36.945312 323.863281 C 37.015625 323.6875 37.121094 323.535156 37.253906 323.398438 C 37.386719 323.265625 37.542969 323.164062 37.714844 323.089844 C 37.890625 323.019531 38.074219 322.980469 38.261719 322.980469 C 38.453125 322.980469 38.636719 323.019531 38.808594 323.089844 C 38.984375 323.164062 39.140625 323.265625 39.273438 323.398438 C 39.40625 323.535156 39.511719 323.6875 39.582031 323.863281 C 39.65625 324.039062 39.691406 324.21875 39.691406 324.410156 Z M 39.691406 324.410156 " fill-opacity="1" fill-rule="nonzero"/></g><g clip-path="url(#55e12de224)"><path fill="#fdb11d" d="M 47.058594 324.410156 C 47.058594 324.597656 47.023438 324.78125 46.949219 324.957031 C 46.878906 325.132812 46.773438 325.285156 46.640625 325.417969 C 46.507812 325.554688 46.351562 325.65625 46.175781 325.730469 C 46.003906 325.800781 45.820312 325.839844 45.628906 325.839844 C 45.441406 325.839844 45.257812 325.800781 45.085938 325.730469 C 44.910156 325.65625 44.753906 325.554688 44.621094 325.417969 C 44.488281 325.285156 44.382812 325.132812 44.3125 324.957031 C 44.238281 324.78125 44.203125 324.597656 44.203125 324.410156 C 44.203125 324.21875 44.238281 324.039062 44.3125 323.863281 C 44.382812 323.6875 44.488281 323.535156 44.621094 323.398438 C 44.753906 323.265625 44.910156 323.164062 45.085938 323.089844 C 45.257812 323.019531 45.441406 322.980469 45.628906 322.980469 C 45.820312 322.980469 46.003906 323.019531 46.175781 323.089844 C 46.351562 323.164062 46.507812 323.265625 46.640625 323.398438 C 46.773438 323.535156 46.878906 323.6875 46.949219 323.863281 C 47.023438 324.039062 47.058594 324.21875 47.058594 324.410156 Z M 47.058594 324.410156 " fill-opacity="1" fill-rule="nonzero"/></g><g clip-path="url(#5c00df10e1)"><path fill="#fdb11d" d="M 54.425781 324.410156 C 54.425781 324.597656 54.390625 324.78125 54.316406 324.957031 C 54.246094 325.132812 54.140625 325.285156 54.007812 325.417969 C 53.875 325.554688 53.71875 325.65625 53.542969 325.730469 C 53.367188 325.800781 53.1875 325.839844 52.996094 325.839844 C 52.808594 325.839844 52.625 325.800781 52.449219 325.730469 C 52.277344 325.65625 52.121094 325.554688 51.988281 325.417969 C 51.855469 325.285156 51.75 325.132812 51.679688 324.957031 C 51.605469 324.78125 51.570312 324.597656 51.570312 324.410156 C 51.570312 324.21875 51.605469 324.039062 51.679688 323.863281 C 51.75 323.6875 51.855469 323.535156 51.988281 323.398438 C 52.121094 323.265625 52.277344 323.164062 52.449219 323.089844 C 52.625 323.019531 52.808594 322.980469 52.996094 322.980469 C 53.1875 322.980469 53.367188 323.019531 53.542969 323.089844 C 53.71875 323.164062 53.875 323.265625 54.007812 323.398438 C 54.140625 323.535156 54.246094 323.6875 54.316406 323.863281 C 54.390625 324.039062 54.425781 324.21875 54.425781 324.410156 Z M 54.425781 324.410156 " fill-opacity="1" fill-rule="nonzero"/></g><g clip-path="url(#6acd75fa56)"><path fill="#fdb11d" d="M 61.792969 324.410156 C 61.792969 324.597656 61.757812 324.78125 61.683594 324.957031 C 61.613281 325.132812 61.507812 325.285156 61.375 325.417969 C 61.242188 325.554688 61.085938 325.65625 60.910156 325.730469 C 60.734375 325.800781 60.554688 325.839844 60.363281 325.839844 C 60.175781 325.839844 59.992188 325.800781 59.816406 325.730469 C 59.644531 325.65625 59.488281 325.554688 59.355469 325.417969 C 59.222656 325.285156 59.117188 325.132812 59.046875 324.957031 C 58.972656 324.78125 58.9375 324.597656 58.9375 324.410156 C 58.9375 324.21875 58.972656 324.039062 59.046875 323.863281 C 59.117188 323.6875 59.222656 323.535156 59.355469 323.398438 C 59.488281 323.265625 59.644531 323.164062 59.816406 323.089844 C 59.992188 323.019531 60.175781 322.980469 60.363281 322.980469 C 60.554688 322.980469 60.734375 323.019531 60.910156 323.089844 C 61.085938 323.164062 61.242188 323.265625 61.375 323.398438 C 61.507812 323.535156 61.613281 323.6875 61.683594 323.863281 C 61.757812 324.039062 61.792969 324.21875 61.792969 324.410156 Z M 61.792969 324.410156 " fill-opacity="1" fill-rule="nonzero"/></g><path fill="#5751e1" d="M 115.410156 84.769531 C 75.421875 112.648438 50.882812 107.03125 41.492188 130.804688 C 33.621094 150.71875 43.796875 172.886719 50.492188 188.285156 C 62.21875 215.269531 76.1875 221.128906 91.753906 241.828125 C 126.972656 288.664062 99.648438 317.4375 128.128906 351.394531 C 162.550781 392.429688 243.0625 398.828125 276.964844 377.695312 C 281.453125 374.898438 293.851562 366.316406 313.039062 360.605469 C 324.863281 357.085938 337.445312 357.378906 349.648438 355.550781 C 384.226562 350.371094 415.507812 326.851562 430.089844 295.074219 C 444.671875 263.296875 442.097656 224.246094 423.476562 194.65625 C 419.078125 187.664062 413.804688 181.082031 411.046875 173.296875 C 407.226562 162.523438 408.632812 150.71875 408.152344 139.300781 C 408.816406 112.972656 401.027344 98.882812 393.816406 90.886719 C 369.085938 63.457031 328.789062 82.910156 293.824219 51.765625 C 276.621094 36.441406 281.074219 27.011719 264.148438 17.324219 C 234.246094 0.214844 195.917969 15.695312 187.628906 19.296875 C 150.96875 35.234375 157.136719 55.675781 115.410156 84.769531 Z M 115.410156 84.769531 " fill-opacity="1" fill-rule="nonzero"/></svg>