<svg xmlns="http://www.w3.org/2000/svg" xmlns:xlink="http://www.w3.org/1999/xlink" width="75" zoomAndPan="magnify" viewBox="0 0 56.25 665.999985" height="888" preserveAspectRatio="xMidYMid meet" version="1.0"><defs><clipPath id="471f2a664f"><path d="M 22 649 L 34 649 L 34 660.972656 L 22 660.972656 Z M 22 649 " clip-rule="nonzero"/></clipPath><clipPath id="ef192eb9a4"><path d="M 22 649 L 34 649 L 34 660.972656 L 22 660.972656 Z M 22 649 " clip-rule="nonzero"/></clipPath><clipPath id="c45431b9df"><path d="M 44 627 L 55.507812 627 L 55.507812 639 L 44 639 Z M 44 627 " clip-rule="nonzero"/></clipPath><clipPath id="bf83e6a694"><path d="M 44 572 L 55.507812 572 L 55.507812 584 L 44 584 Z M 44 572 " clip-rule="nonzero"/></clipPath><clipPath id="e58f02e7ee"><path d="M 22 649 L 34 649 L 34 660.972656 L 22 660.972656 Z M 22 649 " clip-rule="nonzero"/></clipPath><clipPath id="fb554747ec"><path d="M 22 649 L 34 649 L 34 660.972656 L 22 660.972656 Z M 22 649 " clip-rule="nonzero"/></clipPath><clipPath id="781bd3a1f1"><path d="M 44 627 L 55.507812 627 L 55.507812 639 L 44 639 Z M 44 627 " clip-rule="nonzero"/></clipPath><clipPath id="6018524b85"><path d="M 44 572 L 55.507812 572 L 55.507812 584 L 44 584 Z M 44 572 " clip-rule="nonzero"/></clipPath><clipPath id="a411ac01aa"><path d="M 44 516 L 55.507812 516 L 55.507812 529 L 44 529 Z M 44 516 " clip-rule="nonzero"/></clipPath><clipPath id="846170b4a9"><path d="M 44 461 L 55.507812 461 L 55.507812 473 L 44 473 Z M 44 461 " clip-rule="nonzero"/></clipPath><clipPath id="a34324d218"><path d="M 44 406 L 55.507812 406 L 55.507812 418 L 44 418 Z M 44 406 " clip-rule="nonzero"/></clipPath><clipPath id="fcaf4adc9d"><path d="M 22 328.652344 L 34 328.652344 L 34 340 L 22 340 Z M 22 328.652344 " clip-rule="nonzero"/></clipPath><clipPath id="cbda8bf4d7"><path d="M 44 350 L 55.507812 350 L 55.507812 362 L 44 362 Z M 44 350 " clip-rule="nonzero"/></clipPath><clipPath id="df422b7f1c"><path d="M 22 328.652344 L 34 328.652344 L 34 340 L 22 340 Z M 22 328.652344 " clip-rule="nonzero"/></clipPath><clipPath id="853c5fd922"><path d="M 22 325 L 34 325 L 34 336.699219 L 22 336.699219 Z M 22 325 " clip-rule="nonzero"/></clipPath><clipPath id="a7fb954201"><path d="M 22 325 L 34 325 L 34 336.699219 L 22 336.699219 Z M 22 325 " clip-rule="nonzero"/></clipPath><clipPath id="6bbbd57729"><path d="M 44 303 L 55.507812 303 L 55.507812 315 L 44 315 Z M 44 303 " clip-rule="nonzero"/></clipPath><clipPath id="b2cf0a882a"><path d="M 44 248 L 55.507812 248 L 55.507812 260 L 44 260 Z M 44 248 " clip-rule="nonzero"/></clipPath><clipPath id="8ba668f43d"><path d="M 22 325 L 34 325 L 34 336.699219 L 22 336.699219 Z M 22 325 " clip-rule="nonzero"/></clipPath><clipPath id="845e6ad8a8"><path d="M 22 325 L 34 325 L 34 336.699219 L 22 336.699219 Z M 22 325 " clip-rule="nonzero"/></clipPath><clipPath id="89cbc43f93"><path d="M 44 303 L 55.507812 303 L 55.507812 315 L 44 315 Z M 44 303 " clip-rule="nonzero"/></clipPath><clipPath id="fd51d4bcc8"><path d="M 44 248 L 55.507812 248 L 55.507812 260 L 44 260 Z M 44 248 " clip-rule="nonzero"/></clipPath><clipPath id="9c653e3fe1"><path d="M 44 192 L 55.507812 192 L 55.507812 204 L 44 204 Z M 44 192 " clip-rule="nonzero"/></clipPath><clipPath id="1eb6cd7540"><path d="M 44 137 L 55.507812 137 L 55.507812 149 L 44 149 Z M 44 137 " clip-rule="nonzero"/></clipPath><clipPath id="2194aaee59"><path d="M 44 81 L 55.507812 81 L 55.507812 94 L 44 94 Z M 44 81 " clip-rule="nonzero"/></clipPath><clipPath id="a28d320765"><path d="M 22 4.382812 L 34 4.382812 L 34 16 L 22 16 Z M 22 4.382812 " clip-rule="nonzero"/></clipPath><clipPath id="33dec7720c"><path d="M 44 26 L 55.507812 26 L 55.507812 38 L 44 38 Z M 44 26 " clip-rule="nonzero"/></clipPath><clipPath id="13d58cf3be"><path d="M 22 4.382812 L 34 4.382812 L 34 16 L 22 16 Z M 22 4.382812 " clip-rule="nonzero"/></clipPath></defs><g clip-path="url(#471f2a664f)"><path fill="#fdb11d" d="M 22.152344 660.957031 L 22.152344 649.878906 L 33.226562 649.878906 L 33.226562 660.957031 Z M 22.152344 660.957031 " fill-opacity="1" fill-rule="nonzero"/></g><path fill="#fdb11d" d="M 11.074219 649.878906 L 11.074219 638.804688 L 22.152344 638.804688 L 22.152344 649.878906 Z M 11.074219 649.878906 " fill-opacity="1" fill-rule="nonzero"/><path fill="#fdb11d" d="M 0 638.804688 L 0 627.726562 L 11.074219 627.726562 L 11.074219 638.804688 Z M 0 638.804688 " fill-opacity="1" fill-rule="nonzero"/><path fill="#fdb11d" d="M 33.226562 605.574219 L 33.226562 616.652344 L 22.152344 616.652344 L 22.152344 605.574219 Z M 33.226562 605.574219 " fill-opacity="1" fill-rule="nonzero"/><path fill="#fdb11d" d="M 22.152344 616.652344 L 22.152344 627.726562 L 11.074219 627.726562 L 11.074219 616.652344 Z M 22.152344 616.652344 " fill-opacity="1" fill-rule="nonzero"/><g clip-path="url(#ef192eb9a4)"><path fill="#fdb11d" d="M 22.152344 660.957031 L 22.152344 649.878906 L 33.226562 649.878906 L 33.226562 660.957031 Z M 22.152344 660.957031 " fill-opacity="1" fill-rule="nonzero"/></g><path fill="#fdb11d" d="M 33.226562 649.878906 L 33.226562 638.804688 L 44.304688 638.804688 L 44.304688 649.878906 Z M 33.226562 649.878906 " fill-opacity="1" fill-rule="nonzero"/><g clip-path="url(#c45431b9df)"><path fill="#fdb11d" d="M 44.304688 638.804688 L 44.304688 627.726562 L 55.382812 627.726562 L 55.382812 638.804688 Z M 44.304688 638.804688 " fill-opacity="1" fill-rule="nonzero"/></g><path fill="#fdb11d" d="M 33.226562 605.574219 L 33.226562 616.652344 L 22.152344 616.652344 L 22.152344 605.574219 Z M 33.226562 605.574219 " fill-opacity="1" fill-rule="nonzero"/><path fill="#fdb11d" d="M 44.304688 616.652344 L 44.304688 627.726562 L 33.226562 627.726562 L 33.226562 616.652344 Z M 44.304688 616.652344 " fill-opacity="1" fill-rule="nonzero"/><path fill="#fdb11d" d="M 22.152344 605.574219 L 22.152344 594.5 L 33.226562 594.5 L 33.226562 605.574219 Z M 22.152344 605.574219 " fill-opacity="1" fill-rule="nonzero"/><path fill="#fdb11d" d="M 11.074219 594.5 L 11.074219 583.421875 L 22.152344 583.421875 L 22.152344 594.5 Z M 11.074219 594.5 " fill-opacity="1" fill-rule="nonzero"/><path fill="#fdb11d" d="M 0 583.421875 L 0 572.347656 L 11.074219 572.347656 L 11.074219 583.421875 Z M 0 583.421875 " fill-opacity="1" fill-rule="nonzero"/><path fill="#fdb11d" d="M 33.226562 550.195312 L 33.226562 561.269531 L 22.152344 561.269531 L 22.152344 550.195312 Z M 33.226562 550.195312 " fill-opacity="1" fill-rule="nonzero"/><path fill="#fdb11d" d="M 22.152344 561.269531 L 22.152344 572.347656 L 11.074219 572.347656 L 11.074219 561.269531 Z M 22.152344 561.269531 " fill-opacity="1" fill-rule="nonzero"/><path fill="#fdb11d" d="M 22.152344 605.574219 L 22.152344 594.5 L 33.226562 594.5 L 33.226562 605.574219 Z M 22.152344 605.574219 " fill-opacity="1" fill-rule="nonzero"/><path fill="#fdb11d" d="M 33.226562 594.5 L 33.226562 583.421875 L 44.304688 583.421875 L 44.304688 594.5 Z M 33.226562 594.5 " fill-opacity="1" fill-rule="nonzero"/><g clip-path="url(#bf83e6a694)"><path fill="#fdb11d" d="M 44.304688 583.421875 L 44.304688 572.347656 L 55.382812 572.347656 L 55.382812 583.421875 Z M 44.304688 583.421875 " fill-opacity="1" fill-rule="nonzero"/></g><path fill="#fdb11d" d="M 33.226562 550.195312 L 33.226562 561.269531 L 22.152344 561.269531 L 22.152344 550.195312 Z M 33.226562 550.195312 " fill-opacity="1" fill-rule="nonzero"/><path fill="#fdb11d" d="M 44.304688 561.269531 L 44.304688 572.347656 L 33.226562 572.347656 L 33.226562 561.269531 Z M 44.304688 561.269531 " fill-opacity="1" fill-rule="nonzero"/><g clip-path="url(#e58f02e7ee)"><path fill="#fdb11d" d="M 22.152344 660.957031 L 22.152344 649.878906 L 33.226562 649.878906 L 33.226562 660.957031 Z M 22.152344 660.957031 " fill-opacity="1" fill-rule="nonzero"/></g><path fill="#fdb11d" d="M 11.074219 649.878906 L 11.074219 638.804688 L 22.152344 638.804688 L 22.152344 649.878906 Z M 11.074219 649.878906 " fill-opacity="1" fill-rule="nonzero"/><path fill="#fdb11d" d="M 0 638.804688 L 0 627.726562 L 11.074219 627.726562 L 11.074219 638.804688 Z M 0 638.804688 " fill-opacity="1" fill-rule="nonzero"/><path fill="#fdb11d" d="M 33.226562 605.574219 L 33.226562 616.652344 L 22.152344 616.652344 L 22.152344 605.574219 Z M 33.226562 605.574219 " fill-opacity="1" fill-rule="nonzero"/><path fill="#fdb11d" d="M 22.152344 616.652344 L 22.152344 627.726562 L 11.074219 627.726562 L 11.074219 616.652344 Z M 22.152344 616.652344 " fill-opacity="1" fill-rule="nonzero"/><g clip-path="url(#fb554747ec)"><path fill="#fdb11d" d="M 22.152344 660.957031 L 22.152344 649.878906 L 33.226562 649.878906 L 33.226562 660.957031 Z M 22.152344 660.957031 " fill-opacity="1" fill-rule="nonzero"/></g><path fill="#fdb11d" d="M 33.226562 649.878906 L 33.226562 638.804688 L 44.304688 638.804688 L 44.304688 649.878906 Z M 33.226562 649.878906 " fill-opacity="1" fill-rule="nonzero"/><g clip-path="url(#781bd3a1f1)"><path fill="#fdb11d" d="M 44.304688 638.804688 L 44.304688 627.726562 L 55.382812 627.726562 L 55.382812 638.804688 Z M 44.304688 638.804688 " fill-opacity="1" fill-rule="nonzero"/></g><path fill="#fdb11d" d="M 33.226562 605.574219 L 33.226562 616.652344 L 22.152344 616.652344 L 22.152344 605.574219 Z M 33.226562 605.574219 " fill-opacity="1" fill-rule="nonzero"/><path fill="#fdb11d" d="M 44.304688 616.652344 L 44.304688 627.726562 L 33.226562 627.726562 L 33.226562 616.652344 Z M 44.304688 616.652344 " fill-opacity="1" fill-rule="nonzero"/><path fill="#fdb11d" d="M 22.152344 605.574219 L 22.152344 594.5 L 33.226562 594.5 L 33.226562 605.574219 Z M 22.152344 605.574219 " fill-opacity="1" fill-rule="nonzero"/><path fill="#fdb11d" d="M 11.074219 594.5 L 11.074219 583.421875 L 22.152344 583.421875 L 22.152344 594.5 Z M 11.074219 594.5 " fill-opacity="1" fill-rule="nonzero"/><path fill="#fdb11d" d="M 0 583.421875 L 0 572.347656 L 11.074219 572.347656 L 11.074219 583.421875 Z M 0 583.421875 " fill-opacity="1" fill-rule="nonzero"/><path fill="#fdb11d" d="M 33.226562 550.195312 L 33.226562 561.269531 L 22.152344 561.269531 L 22.152344 550.195312 Z M 33.226562 550.195312 " fill-opacity="1" fill-rule="nonzero"/><path fill="#fdb11d" d="M 22.152344 561.269531 L 22.152344 572.347656 L 11.074219 572.347656 L 11.074219 561.269531 Z M 22.152344 561.269531 " fill-opacity="1" fill-rule="nonzero"/><path fill="#fdb11d" d="M 22.152344 605.574219 L 22.152344 594.5 L 33.226562 594.5 L 33.226562 605.574219 Z M 22.152344 605.574219 " fill-opacity="1" fill-rule="nonzero"/><path fill="#fdb11d" d="M 33.226562 594.5 L 33.226562 583.421875 L 44.304688 583.421875 L 44.304688 594.5 Z M 33.226562 594.5 " fill-opacity="1" fill-rule="nonzero"/><g clip-path="url(#6018524b85)"><path fill="#fdb11d" d="M 44.304688 583.421875 L 44.304688 572.347656 L 55.382812 572.347656 L 55.382812 583.421875 Z M 44.304688 583.421875 " fill-opacity="1" fill-rule="nonzero"/></g><path fill="#fdb11d" d="M 33.226562 550.195312 L 33.226562 561.269531 L 22.152344 561.269531 L 22.152344 550.195312 Z M 33.226562 550.195312 " fill-opacity="1" fill-rule="nonzero"/><path fill="#fdb11d" d="M 44.304688 561.269531 L 44.304688 572.347656 L 33.226562 572.347656 L 33.226562 561.269531 Z M 44.304688 561.269531 " fill-opacity="1" fill-rule="nonzero"/><path fill="#fdb11d" d="M 22.152344 550.195312 L 22.152344 539.117188 L 33.226562 539.117188 L 33.226562 550.195312 Z M 22.152344 550.195312 " fill-opacity="1" fill-rule="nonzero"/><path fill="#fdb11d" d="M 11.074219 539.117188 L 11.074219 528.042969 L 22.152344 528.042969 L 22.152344 539.117188 Z M 11.074219 539.117188 " fill-opacity="1" fill-rule="nonzero"/><path fill="#fdb11d" d="M 0 528.042969 L 0 516.964844 L 11.074219 516.964844 L 11.074219 528.042969 Z M 0 528.042969 " fill-opacity="1" fill-rule="nonzero"/><path fill="#fdb11d" d="M 33.226562 494.8125 L 33.226562 505.890625 L 22.152344 505.890625 L 22.152344 494.8125 Z M 33.226562 494.8125 " fill-opacity="1" fill-rule="nonzero"/><path fill="#fdb11d" d="M 22.152344 505.890625 L 22.152344 516.964844 L 11.074219 516.964844 L 11.074219 505.890625 Z M 22.152344 505.890625 " fill-opacity="1" fill-rule="nonzero"/><path fill="#fdb11d" d="M 22.152344 550.195312 L 22.152344 539.117188 L 33.226562 539.117188 L 33.226562 550.195312 Z M 22.152344 550.195312 " fill-opacity="1" fill-rule="nonzero"/><path fill="#fdb11d" d="M 33.226562 539.117188 L 33.226562 528.042969 L 44.304688 528.042969 L 44.304688 539.117188 Z M 33.226562 539.117188 " fill-opacity="1" fill-rule="nonzero"/><g clip-path="url(#a411ac01aa)"><path fill="#fdb11d" d="M 44.304688 528.042969 L 44.304688 516.964844 L 55.382812 516.964844 L 55.382812 528.042969 Z M 44.304688 528.042969 " fill-opacity="1" fill-rule="nonzero"/></g><path fill="#fdb11d" d="M 33.226562 494.8125 L 33.226562 505.890625 L 22.152344 505.890625 L 22.152344 494.8125 Z M 33.226562 494.8125 " fill-opacity="1" fill-rule="nonzero"/><path fill="#fdb11d" d="M 44.304688 505.890625 L 44.304688 516.964844 L 33.226562 516.964844 L 33.226562 505.890625 Z M 44.304688 505.890625 " fill-opacity="1" fill-rule="nonzero"/><path fill="#fdb11d" d="M 22.152344 494.8125 L 22.152344 483.738281 L 33.226562 483.738281 L 33.226562 494.8125 Z M 22.152344 494.8125 " fill-opacity="1" fill-rule="nonzero"/><path fill="#fdb11d" d="M 11.074219 483.738281 L 11.074219 472.660156 L 22.152344 472.660156 L 22.152344 483.738281 Z M 11.074219 483.738281 " fill-opacity="1" fill-rule="nonzero"/><path fill="#fdb11d" d="M 0 472.660156 L 0 461.585938 L 11.074219 461.585938 L 11.074219 472.660156 Z M 0 472.660156 " fill-opacity="1" fill-rule="nonzero"/><path fill="#fdb11d" d="M 33.226562 439.433594 L 33.226562 450.507812 L 22.152344 450.507812 L 22.152344 439.433594 Z M 33.226562 439.433594 " fill-opacity="1" fill-rule="nonzero"/><path fill="#fdb11d" d="M 22.152344 450.507812 L 22.152344 461.585938 L 11.074219 461.585938 L 11.074219 450.507812 Z M 22.152344 450.507812 " fill-opacity="1" fill-rule="nonzero"/><path fill="#fdb11d" d="M 22.152344 494.8125 L 22.152344 483.738281 L 33.226562 483.738281 L 33.226562 494.8125 Z M 22.152344 494.8125 " fill-opacity="1" fill-rule="nonzero"/><path fill="#fdb11d" d="M 33.226562 483.738281 L 33.226562 472.660156 L 44.304688 472.660156 L 44.304688 483.738281 Z M 33.226562 483.738281 " fill-opacity="1" fill-rule="nonzero"/><g clip-path="url(#846170b4a9)"><path fill="#fdb11d" d="M 44.304688 472.660156 L 44.304688 461.585938 L 55.382812 461.585938 L 55.382812 472.660156 Z M 44.304688 472.660156 " fill-opacity="1" fill-rule="nonzero"/></g><path fill="#fdb11d" d="M 33.226562 439.433594 L 33.226562 450.507812 L 22.152344 450.507812 L 22.152344 439.433594 Z M 33.226562 439.433594 " fill-opacity="1" fill-rule="nonzero"/><path fill="#fdb11d" d="M 44.304688 450.507812 L 44.304688 461.585938 L 33.226562 461.585938 L 33.226562 450.507812 Z M 44.304688 450.507812 " fill-opacity="1" fill-rule="nonzero"/><path fill="#fdb11d" d="M 22.152344 439.433594 L 22.152344 428.355469 L 33.226562 428.355469 L 33.226562 439.433594 Z M 22.152344 439.433594 " fill-opacity="1" fill-rule="nonzero"/><path fill="#fdb11d" d="M 11.074219 428.355469 L 11.074219 417.28125 L 22.152344 417.28125 L 22.152344 428.355469 Z M 11.074219 428.355469 " fill-opacity="1" fill-rule="nonzero"/><path fill="#fdb11d" d="M 0 417.28125 L 0 406.203125 L 11.074219 406.203125 L 11.074219 417.28125 Z M 0 417.28125 " fill-opacity="1" fill-rule="nonzero"/><path fill="#fdb11d" d="M 33.226562 384.050781 L 33.226562 395.128906 L 22.152344 395.128906 L 22.152344 384.050781 Z M 33.226562 384.050781 " fill-opacity="1" fill-rule="nonzero"/><path fill="#fdb11d" d="M 22.152344 395.125 L 22.152344 406.203125 L 11.074219 406.203125 L 11.074219 395.125 Z M 22.152344 395.125 " fill-opacity="1" fill-rule="nonzero"/><path fill="#fdb11d" d="M 22.152344 439.433594 L 22.152344 428.355469 L 33.226562 428.355469 L 33.226562 439.433594 Z M 22.152344 439.433594 " fill-opacity="1" fill-rule="nonzero"/><path fill="#fdb11d" d="M 33.226562 428.355469 L 33.226562 417.28125 L 44.304688 417.28125 L 44.304688 428.355469 Z M 33.226562 428.355469 " fill-opacity="1" fill-rule="nonzero"/><g clip-path="url(#a34324d218)"><path fill="#fdb11d" d="M 44.304688 417.28125 L 44.304688 406.203125 L 55.382812 406.203125 L 55.382812 417.28125 Z M 44.304688 417.28125 " fill-opacity="1" fill-rule="nonzero"/></g><path fill="#fdb11d" d="M 33.226562 384.050781 L 33.226562 395.128906 L 22.152344 395.128906 L 22.152344 384.050781 Z M 33.226562 384.050781 " fill-opacity="1" fill-rule="nonzero"/><path fill="#fdb11d" d="M 44.304688 395.125 L 44.304688 406.203125 L 33.226562 406.203125 L 33.226562 395.125 Z M 44.304688 395.125 " fill-opacity="1" fill-rule="nonzero"/><path fill="#fdb11d" d="M 22.152344 384.050781 L 22.152344 372.972656 L 33.226562 372.972656 L 33.226562 384.050781 Z M 22.152344 384.050781 " fill-opacity="1" fill-rule="nonzero"/><path fill="#fdb11d" d="M 11.074219 372.972656 L 11.074219 361.898438 L 22.152344 361.898438 L 22.152344 372.972656 Z M 11.074219 372.972656 " fill-opacity="1" fill-rule="nonzero"/><path fill="#fdb11d" d="M 0 361.898438 L 0 350.820312 L 11.074219 350.820312 L 11.074219 361.898438 Z M 0 361.898438 " fill-opacity="1" fill-rule="nonzero"/><g clip-path="url(#fcaf4adc9d)"><path fill="#fdb11d" d="M 33.226562 328.667969 L 33.226562 339.746094 L 22.152344 339.746094 L 22.152344 328.667969 Z M 33.226562 328.667969 " fill-opacity="1" fill-rule="nonzero"/></g><path fill="#fdb11d" d="M 22.152344 339.746094 L 22.152344 350.820312 L 11.074219 350.820312 L 11.074219 339.746094 Z M 22.152344 339.746094 " fill-opacity="1" fill-rule="nonzero"/><path fill="#fdb11d" d="M 22.152344 384.050781 L 22.152344 372.972656 L 33.226562 372.972656 L 33.226562 384.050781 Z M 22.152344 384.050781 " fill-opacity="1" fill-rule="nonzero"/><path fill="#fdb11d" d="M 33.226562 372.972656 L 33.226562 361.898438 L 44.304688 361.898438 L 44.304688 372.972656 Z M 33.226562 372.972656 " fill-opacity="1" fill-rule="nonzero"/><g clip-path="url(#cbda8bf4d7)"><path fill="#fdb11d" d="M 44.304688 361.898438 L 44.304688 350.820312 L 55.382812 350.820312 L 55.382812 361.898438 Z M 44.304688 361.898438 " fill-opacity="1" fill-rule="nonzero"/></g><g clip-path="url(#df422b7f1c)"><path fill="#fdb11d" d="M 33.226562 328.667969 L 33.226562 339.746094 L 22.152344 339.746094 L 22.152344 328.667969 Z M 33.226562 328.667969 " fill-opacity="1" fill-rule="nonzero"/></g><path fill="#fdb11d" d="M 44.304688 339.746094 L 44.304688 350.820312 L 33.226562 350.820312 L 33.226562 339.746094 Z M 44.304688 339.746094 " fill-opacity="1" fill-rule="nonzero"/><g clip-path="url(#853c5fd922)"><path fill="#fdb11d" d="M 22.152344 336.6875 L 22.152344 325.609375 L 33.226562 325.609375 L 33.226562 336.6875 Z M 22.152344 336.6875 " fill-opacity="1" fill-rule="nonzero"/></g><path fill="#fdb11d" d="M 11.074219 325.609375 L 11.074219 314.535156 L 22.152344 314.535156 L 22.152344 325.609375 Z M 11.074219 325.609375 " fill-opacity="1" fill-rule="nonzero"/><path fill="#fdb11d" d="M 0 314.535156 L 0 303.457031 L 11.074219 303.457031 L 11.074219 314.535156 Z M 0 314.535156 " fill-opacity="1" fill-rule="nonzero"/><path fill="#fdb11d" d="M 33.226562 281.304688 L 33.226562 292.382812 L 22.152344 292.382812 L 22.152344 281.304688 Z M 33.226562 281.304688 " fill-opacity="1" fill-rule="nonzero"/><path fill="#fdb11d" d="M 22.152344 292.382812 L 22.152344 303.457031 L 11.074219 303.457031 L 11.074219 292.382812 Z M 22.152344 292.382812 " fill-opacity="1" fill-rule="nonzero"/><g clip-path="url(#a7fb954201)"><path fill="#fdb11d" d="M 22.152344 336.6875 L 22.152344 325.609375 L 33.226562 325.609375 L 33.226562 336.6875 Z M 22.152344 336.6875 " fill-opacity="1" fill-rule="nonzero"/></g><path fill="#fdb11d" d="M 33.226562 325.609375 L 33.226562 314.535156 L 44.304688 314.535156 L 44.304688 325.609375 Z M 33.226562 325.609375 " fill-opacity="1" fill-rule="nonzero"/><g clip-path="url(#6bbbd57729)"><path fill="#fdb11d" d="M 44.304688 314.535156 L 44.304688 303.457031 L 55.382812 303.457031 L 55.382812 314.535156 Z M 44.304688 314.535156 " fill-opacity="1" fill-rule="nonzero"/></g><path fill="#fdb11d" d="M 33.226562 281.304688 L 33.226562 292.382812 L 22.152344 292.382812 L 22.152344 281.304688 Z M 33.226562 281.304688 " fill-opacity="1" fill-rule="nonzero"/><path fill="#fdb11d" d="M 44.304688 292.382812 L 44.304688 303.457031 L 33.226562 303.457031 L 33.226562 292.382812 Z M 44.304688 292.382812 " fill-opacity="1" fill-rule="nonzero"/><path fill="#fdb11d" d="M 22.152344 281.304688 L 22.152344 270.226562 L 33.226562 270.226562 L 33.226562 281.304688 Z M 22.152344 281.304688 " fill-opacity="1" fill-rule="nonzero"/><path fill="#fdb11d" d="M 11.074219 270.230469 L 11.074219 259.152344 L 22.152344 259.152344 L 22.152344 270.230469 Z M 11.074219 270.230469 " fill-opacity="1" fill-rule="nonzero"/><path fill="#fdb11d" d="M 0 259.152344 L 0 248.074219 L 11.074219 248.074219 L 11.074219 259.152344 Z M 0 259.152344 " fill-opacity="1" fill-rule="nonzero"/><path fill="#fdb11d" d="M 33.226562 225.925781 L 33.226562 237 L 22.152344 237 L 22.152344 225.925781 Z M 33.226562 225.925781 " fill-opacity="1" fill-rule="nonzero"/><path fill="#fdb11d" d="M 22.152344 237 L 22.152344 248.078125 L 11.074219 248.078125 L 11.074219 237 Z M 22.152344 237 " fill-opacity="1" fill-rule="nonzero"/><path fill="#fdb11d" d="M 22.152344 281.304688 L 22.152344 270.226562 L 33.226562 270.226562 L 33.226562 281.304688 Z M 22.152344 281.304688 " fill-opacity="1" fill-rule="nonzero"/><path fill="#fdb11d" d="M 33.226562 270.230469 L 33.226562 259.152344 L 44.304688 259.152344 L 44.304688 270.230469 Z M 33.226562 270.230469 " fill-opacity="1" fill-rule="nonzero"/><g clip-path="url(#b2cf0a882a)"><path fill="#fdb11d" d="M 44.304688 259.152344 L 44.304688 248.074219 L 55.382812 248.074219 L 55.382812 259.152344 Z M 44.304688 259.152344 " fill-opacity="1" fill-rule="nonzero"/></g><path fill="#fdb11d" d="M 33.226562 225.925781 L 33.226562 237 L 22.152344 237 L 22.152344 225.925781 Z M 33.226562 225.925781 " fill-opacity="1" fill-rule="nonzero"/><path fill="#fdb11d" d="M 44.304688 237 L 44.304688 248.078125 L 33.226562 248.078125 L 33.226562 237 Z M 44.304688 237 " fill-opacity="1" fill-rule="nonzero"/><g clip-path="url(#8ba668f43d)"><path fill="#fdb11d" d="M 22.152344 336.6875 L 22.152344 325.609375 L 33.226562 325.609375 L 33.226562 336.6875 Z M 22.152344 336.6875 " fill-opacity="1" fill-rule="nonzero"/></g><path fill="#fdb11d" d="M 11.074219 325.609375 L 11.074219 314.535156 L 22.152344 314.535156 L 22.152344 325.609375 Z M 11.074219 325.609375 " fill-opacity="1" fill-rule="nonzero"/><path fill="#fdb11d" d="M 0 314.535156 L 0 303.457031 L 11.074219 303.457031 L 11.074219 314.535156 Z M 0 314.535156 " fill-opacity="1" fill-rule="nonzero"/><path fill="#fdb11d" d="M 33.226562 281.304688 L 33.226562 292.382812 L 22.152344 292.382812 L 22.152344 281.304688 Z M 33.226562 281.304688 " fill-opacity="1" fill-rule="nonzero"/><path fill="#fdb11d" d="M 22.152344 292.382812 L 22.152344 303.457031 L 11.074219 303.457031 L 11.074219 292.382812 Z M 22.152344 292.382812 " fill-opacity="1" fill-rule="nonzero"/><g clip-path="url(#845e6ad8a8)"><path fill="#fdb11d" d="M 22.152344 336.6875 L 22.152344 325.609375 L 33.226562 325.609375 L 33.226562 336.6875 Z M 22.152344 336.6875 " fill-opacity="1" fill-rule="nonzero"/></g><path fill="#fdb11d" d="M 33.226562 325.609375 L 33.226562 314.535156 L 44.304688 314.535156 L 44.304688 325.609375 Z M 33.226562 325.609375 " fill-opacity="1" fill-rule="nonzero"/><g clip-path="url(#89cbc43f93)"><path fill="#fdb11d" d="M 44.304688 314.535156 L 44.304688 303.457031 L 55.382812 303.457031 L 55.382812 314.535156 Z M 44.304688 314.535156 " fill-opacity="1" fill-rule="nonzero"/></g><path fill="#fdb11d" d="M 33.226562 281.304688 L 33.226562 292.382812 L 22.152344 292.382812 L 22.152344 281.304688 Z M 33.226562 281.304688 " fill-opacity="1" fill-rule="nonzero"/><path fill="#fdb11d" d="M 44.304688 292.382812 L 44.304688 303.457031 L 33.226562 303.457031 L 33.226562 292.382812 Z M 44.304688 292.382812 " fill-opacity="1" fill-rule="nonzero"/><path fill="#fdb11d" d="M 22.152344 281.304688 L 22.152344 270.226562 L 33.226562 270.226562 L 33.226562 281.304688 Z M 22.152344 281.304688 " fill-opacity="1" fill-rule="nonzero"/><path fill="#fdb11d" d="M 11.074219 270.230469 L 11.074219 259.152344 L 22.152344 259.152344 L 22.152344 270.230469 Z M 11.074219 270.230469 " fill-opacity="1" fill-rule="nonzero"/><path fill="#fdb11d" d="M 0 259.152344 L 0 248.074219 L 11.074219 248.074219 L 11.074219 259.152344 Z M 0 259.152344 " fill-opacity="1" fill-rule="nonzero"/><path fill="#fdb11d" d="M 33.226562 225.925781 L 33.226562 237 L 22.152344 237 L 22.152344 225.925781 Z M 33.226562 225.925781 " fill-opacity="1" fill-rule="nonzero"/><path fill="#fdb11d" d="M 22.152344 237 L 22.152344 248.078125 L 11.074219 248.078125 L 11.074219 237 Z M 22.152344 237 " fill-opacity="1" fill-rule="nonzero"/><path fill="#fdb11d" d="M 22.152344 281.304688 L 22.152344 270.226562 L 33.226562 270.226562 L 33.226562 281.304688 Z M 22.152344 281.304688 " fill-opacity="1" fill-rule="nonzero"/><path fill="#fdb11d" d="M 33.226562 270.230469 L 33.226562 259.152344 L 44.304688 259.152344 L 44.304688 270.230469 Z M 33.226562 270.230469 " fill-opacity="1" fill-rule="nonzero"/><g clip-path="url(#fd51d4bcc8)"><path fill="#fdb11d" d="M 44.304688 259.152344 L 44.304688 248.074219 L 55.382812 248.074219 L 55.382812 259.152344 Z M 44.304688 259.152344 " fill-opacity="1" fill-rule="nonzero"/></g><path fill="#fdb11d" d="M 33.226562 225.925781 L 33.226562 237 L 22.152344 237 L 22.152344 225.925781 Z M 33.226562 225.925781 " fill-opacity="1" fill-rule="nonzero"/><path fill="#fdb11d" d="M 44.304688 237 L 44.304688 248.078125 L 33.226562 248.078125 L 33.226562 237 Z M 44.304688 237 " fill-opacity="1" fill-rule="nonzero"/><path fill="#fdb11d" d="M 22.152344 225.925781 L 22.152344 214.847656 L 33.226562 214.847656 L 33.226562 225.925781 Z M 22.152344 225.925781 " fill-opacity="1" fill-rule="nonzero"/><path fill="#fdb11d" d="M 11.074219 214.847656 L 11.074219 203.769531 L 22.152344 203.769531 L 22.152344 214.847656 Z M 11.074219 214.847656 " fill-opacity="1" fill-rule="nonzero"/><path fill="#fdb11d" d="M 0 203.773438 L 0 192.695312 L 11.074219 192.695312 L 11.074219 203.773438 Z M 0 203.773438 " fill-opacity="1" fill-rule="nonzero"/><path fill="#fdb11d" d="M 33.226562 170.542969 L 33.226562 181.621094 L 22.152344 181.621094 L 22.152344 170.542969 Z M 33.226562 170.542969 " fill-opacity="1" fill-rule="nonzero"/><path fill="#fdb11d" d="M 22.152344 181.617188 L 22.152344 192.695312 L 11.074219 192.695312 L 11.074219 181.617188 Z M 22.152344 181.617188 " fill-opacity="1" fill-rule="nonzero"/><path fill="#fdb11d" d="M 22.152344 225.925781 L 22.152344 214.847656 L 33.226562 214.847656 L 33.226562 225.925781 Z M 22.152344 225.925781 " fill-opacity="1" fill-rule="nonzero"/><path fill="#fdb11d" d="M 33.226562 214.847656 L 33.226562 203.769531 L 44.304688 203.769531 L 44.304688 214.847656 Z M 33.226562 214.847656 " fill-opacity="1" fill-rule="nonzero"/><g clip-path="url(#9c653e3fe1)"><path fill="#fdb11d" d="M 44.304688 203.773438 L 44.304688 192.695312 L 55.382812 192.695312 L 55.382812 203.773438 Z M 44.304688 203.773438 " fill-opacity="1" fill-rule="nonzero"/></g><path fill="#fdb11d" d="M 33.226562 170.542969 L 33.226562 181.621094 L 22.152344 181.621094 L 22.152344 170.542969 Z M 33.226562 170.542969 " fill-opacity="1" fill-rule="nonzero"/><path fill="#fdb11d" d="M 44.304688 181.617188 L 44.304688 192.695312 L 33.226562 192.695312 L 33.226562 181.617188 Z M 44.304688 181.617188 " fill-opacity="1" fill-rule="nonzero"/><path fill="#fdb11d" d="M 22.152344 170.542969 L 22.152344 159.464844 L 33.226562 159.464844 L 33.226562 170.542969 Z M 22.152344 170.542969 " fill-opacity="1" fill-rule="nonzero"/><path fill="#fdb11d" d="M 11.074219 159.464844 L 11.074219 148.390625 L 22.152344 148.390625 L 22.152344 159.464844 Z M 11.074219 159.464844 " fill-opacity="1" fill-rule="nonzero"/><path fill="#fdb11d" d="M 0 148.390625 L 0 137.3125 L 11.074219 137.3125 L 11.074219 148.390625 Z M 0 148.390625 " fill-opacity="1" fill-rule="nonzero"/><path fill="#fdb11d" d="M 33.226562 115.160156 L 33.226562 126.238281 L 22.152344 126.238281 L 22.152344 115.160156 Z M 33.226562 115.160156 " fill-opacity="1" fill-rule="nonzero"/><path fill="#fdb11d" d="M 22.152344 126.238281 L 22.152344 137.316406 L 11.074219 137.316406 L 11.074219 126.238281 Z M 22.152344 126.238281 " fill-opacity="1" fill-rule="nonzero"/><path fill="#fdb11d" d="M 22.152344 170.542969 L 22.152344 159.464844 L 33.226562 159.464844 L 33.226562 170.542969 Z M 22.152344 170.542969 " fill-opacity="1" fill-rule="nonzero"/><path fill="#fdb11d" d="M 33.226562 159.464844 L 33.226562 148.390625 L 44.304688 148.390625 L 44.304688 159.464844 Z M 33.226562 159.464844 " fill-opacity="1" fill-rule="nonzero"/><g clip-path="url(#1eb6cd7540)"><path fill="#fdb11d" d="M 44.304688 148.390625 L 44.304688 137.3125 L 55.382812 137.3125 L 55.382812 148.390625 Z M 44.304688 148.390625 " fill-opacity="1" fill-rule="nonzero"/></g><path fill="#fdb11d" d="M 33.226562 115.160156 L 33.226562 126.238281 L 22.152344 126.238281 L 22.152344 115.160156 Z M 33.226562 115.160156 " fill-opacity="1" fill-rule="nonzero"/><path fill="#fdb11d" d="M 44.304688 126.238281 L 44.304688 137.316406 L 33.226562 137.316406 L 33.226562 126.238281 Z M 44.304688 126.238281 " fill-opacity="1" fill-rule="nonzero"/><path fill="#fdb11d" d="M 22.152344 115.160156 L 22.152344 104.085938 L 33.226562 104.085938 L 33.226562 115.160156 Z M 22.152344 115.160156 " fill-opacity="1" fill-rule="nonzero"/><path fill="#fdb11d" d="M 11.074219 104.085938 L 11.074219 93.007812 L 22.152344 93.007812 L 22.152344 104.085938 Z M 11.074219 104.085938 " fill-opacity="1" fill-rule="nonzero"/><path fill="#fdb11d" d="M 0 93.007812 L 0 81.933594 L 11.074219 81.933594 L 11.074219 93.007812 Z M 0 93.007812 " fill-opacity="1" fill-rule="nonzero"/><path fill="#fdb11d" d="M 33.226562 59.78125 L 33.226562 70.855469 L 22.152344 70.855469 L 22.152344 59.78125 Z M 33.226562 59.78125 " fill-opacity="1" fill-rule="nonzero"/><path fill="#fdb11d" d="M 22.152344 70.855469 L 22.152344 81.933594 L 11.074219 81.933594 L 11.074219 70.855469 Z M 22.152344 70.855469 " fill-opacity="1" fill-rule="nonzero"/><path fill="#fdb11d" d="M 22.152344 115.160156 L 22.152344 104.085938 L 33.226562 104.085938 L 33.226562 115.160156 Z M 22.152344 115.160156 " fill-opacity="1" fill-rule="nonzero"/><path fill="#fdb11d" d="M 33.226562 104.085938 L 33.226562 93.007812 L 44.304688 93.007812 L 44.304688 104.085938 Z M 33.226562 104.085938 " fill-opacity="1" fill-rule="nonzero"/><g clip-path="url(#2194aaee59)"><path fill="#fdb11d" d="M 44.304688 93.007812 L 44.304688 81.933594 L 55.382812 81.933594 L 55.382812 93.007812 Z M 44.304688 93.007812 " fill-opacity="1" fill-rule="nonzero"/></g><path fill="#fdb11d" d="M 33.226562 59.78125 L 33.226562 70.855469 L 22.152344 70.855469 L 22.152344 59.78125 Z M 33.226562 59.78125 " fill-opacity="1" fill-rule="nonzero"/><path fill="#fdb11d" d="M 44.304688 70.855469 L 44.304688 81.933594 L 33.226562 81.933594 L 33.226562 70.855469 Z M 44.304688 70.855469 " fill-opacity="1" fill-rule="nonzero"/><path fill="#fdb11d" d="M 22.152344 59.78125 L 22.152344 48.703125 L 33.226562 48.703125 L 33.226562 59.78125 Z M 22.152344 59.78125 " fill-opacity="1" fill-rule="nonzero"/><path fill="#fdb11d" d="M 11.074219 48.703125 L 11.074219 37.628906 L 22.152344 37.628906 L 22.152344 48.703125 Z M 11.074219 48.703125 " fill-opacity="1" fill-rule="nonzero"/><path fill="#fdb11d" d="M 0 37.628906 L 0 26.550781 L 11.074219 26.550781 L 11.074219 37.628906 Z M 0 37.628906 " fill-opacity="1" fill-rule="nonzero"/><g clip-path="url(#a28d320765)"><path fill="#fdb11d" d="M 33.226562 4.398438 L 33.226562 15.476562 L 22.152344 15.476562 L 22.152344 4.398438 Z M 33.226562 4.398438 " fill-opacity="1" fill-rule="nonzero"/></g><path fill="#fdb11d" d="M 22.152344 15.476562 L 22.152344 26.550781 L 11.074219 26.550781 L 11.074219 15.476562 Z M 22.152344 15.476562 " fill-opacity="1" fill-rule="nonzero"/><path fill="#fdb11d" d="M 22.152344 59.78125 L 22.152344 48.703125 L 33.226562 48.703125 L 33.226562 59.78125 Z M 22.152344 59.78125 " fill-opacity="1" fill-rule="nonzero"/><path fill="#fdb11d" d="M 33.226562 48.703125 L 33.226562 37.628906 L 44.304688 37.628906 L 44.304688 48.703125 Z M 33.226562 48.703125 " fill-opacity="1" fill-rule="nonzero"/><g clip-path="url(#33dec7720c)"><path fill="#fdb11d" d="M 44.304688 37.628906 L 44.304688 26.550781 L 55.382812 26.550781 L 55.382812 37.628906 Z M 44.304688 37.628906 " fill-opacity="1" fill-rule="nonzero"/></g><g clip-path="url(#13d58cf3be)"><path fill="#fdb11d" d="M 33.226562 4.398438 L 33.226562 15.476562 L 22.152344 15.476562 L 22.152344 4.398438 Z M 33.226562 4.398438 " fill-opacity="1" fill-rule="nonzero"/></g><path fill="#fdb11d" d="M 44.304688 15.476562 L 44.304688 26.550781 L 33.226562 26.550781 L 33.226562 15.476562 Z M 44.304688 15.476562 " fill-opacity="1" fill-rule="nonzero"/></svg>