<svg width="86" height="39" viewBox="0 0 86 39" fill="none" xmlns="http://www.w3.org/2000/svg">
<mask id="mask0_514_26" style="mask-type:luminance" maskUnits="userSpaceOnUse" x="0" y="0" width="86" height="39">
<path d="M0.345459 0H85.5071V38.3266H0.345459V0Z" fill="white"/>
</mask>
<g mask="url(#mask0_514_26)">
<path fill-rule="evenodd" clip-rule="evenodd" d="M44.1947 32.5413C47.3966 32.5413 50.0163 30.0992 50.0163 27.1145V5.42678C50.0163 2.44205 47.3966 0 44.1947 0C40.9825 0 38.3627 2.44205 38.3627 5.42678V27.1145C38.3627 30.0992 40.9825 32.5413 44.1947 32.5413ZM66.4415 36.7373C63.4684 35.6035 62.0546 32.3959 63.2709 29.6631L72.1488 9.62284C73.3547 6.85131 76.7957 5.53337 79.7273 6.66718C82.7004 7.80099 84.1039 11.0086 82.8979 13.7414L74.02 33.7817C72.8141 36.5532 69.3731 37.8615 66.4415 36.7373ZM19.3698 37.6773C22.3326 36.5532 23.7464 33.3456 22.5301 30.6128L13.6521 10.5628C12.4462 7.80099 9.00526 6.48306 6.07367 7.61687C3.1005 8.74099 1.69707 11.9486 2.90298 14.6814L11.7809 34.7314C12.9972 37.5029 16.4278 38.8111 19.3698 37.6773Z" fill="#313376"/>
</g>
</svg>
