<svg width="155" height="168" viewBox="0 0 155 168" fill="none" xmlns="http://www.w3.org/2000/svg">
<mask id="mask0_514_21" style="mask-type:luminance" maskUnits="userSpaceOnUse" x="0" y="0" width="155" height="168">
<path d="M0 0.807495H155V167.022H0V0.807495Z" fill="white"/>
</mask>
<g mask="url(#mask0_514_21)">
<path d="M124.114 123.123C116.099 133.657 109.217 142.766 108.708 149.908V163.398L111.088 163.872L114.301 164.522L117.97 165.287V150.199C118.168 148.019 119.769 144.918 122.118 141.274C124.655 137.339 128.096 132.785 131.662 128.075C132.753 126.66 133.647 125.42 134.281 124.616C135.29 123.269 136.194 122.067 136.901 121.117C141.038 115.506 146.829 106.649 150.894 96.5223C153.742 89.3803 155.78 81.5793 155.78 73.8461C155.78 53.8446 147.058 35.694 132.951 22.5728C118.833 9.41287 99.4036 1.29208 77.9053 1.29208C56.4382 1.29208 36.967 9.41287 22.8912 22.5728C8.77386 35.7327 0.0622559 53.8446 0.0622559 73.8461C0.0622559 81.6181 2.08942 89.3803 4.94824 96.5514C9.01296 106.727 14.8034 115.545 18.9409 121.156C19.5646 121.989 20.469 123.23 21.5606 124.654C22.1531 125.459 23.1303 126.699 24.1803 128.114C27.0391 131.874 29.8148 135.547 32.0395 138.754C34.2641 141.962 36.0314 144.918 37.0502 147.427L37.6323 148.852L39.2333 149.181L42.8718 149.908L47.7993 150.926L46.4271 146.41C45.4083 143.096 43.4228 139.452 40.7615 135.479C38.1833 131.583 35.0542 127.494 31.7692 123.123C30.6776 121.67 29.7732 120.497 29.191 119.731C28.4841 118.782 27.6213 117.658 26.6441 116.311C23.4006 111.901 19.0656 105.38 15.5415 97.8306C12.0589 90.3978 9.36641 82.0541 9.408 73.8461C9.408 56.2091 17.1112 40.2098 29.5029 28.6585C41.8946 17.1073 59.0579 9.92647 77.9781 9.92647C96.8983 9.92647 114.02 17.1073 126.453 28.6585C138.887 40.2486 146.59 56.2479 146.59 73.8461C146.59 80.5521 144.791 87.3743 142.255 93.6733C138.533 102.899 133.138 111.058 129.354 116.272C128.221 117.803 126.578 119.954 124.967 122.106L124.229 123.123H124.114Z" fill="#100F0D"/>
</g>
</svg>
