<svg width="59" height="27" viewBox="0 0 59 27" fill="none" xmlns="http://www.w3.org/2000/svg">
<mask id="mask0_514_16" style="mask-type:luminance" maskUnits="userSpaceOnUse" x="-1" y="0" width="60" height="27">
<path d="M-0.00952148 0.195557H58.5391V27H-0.00952148V0.195557Z" fill="white"/>
</mask>
<g mask="url(#mask0_514_16)">
<path fill-rule="evenodd" clip-rule="evenodd" d="M2.65155 1.00958L56.3766 11.9794C51.9584 21.0887 42.1864 27.4651 30.7615 27.4651C15.2408 27.4651 2.62036 15.691 2.62036 1.22278C2.62036 1.15494 2.65155 1.07742 2.65155 1.00958ZM25.8444 21.8542C26.1147 21.0499 25.6053 20.2165 24.784 19.9936C18.2971 18.1718 13.1304 13.5396 10.9473 7.57017C10.6355 6.8046 9.73103 6.3976 8.90976 6.62048C8.08851 6.87244 7.6207 7.7446 7.89099 8.51016C10.4379 15.4002 16.4155 20.7592 23.89 22.833C24.0459 22.8717 24.2019 22.9105 24.3578 22.9105C25.0543 22.9105 25.6884 22.5132 25.8756 21.8155L25.8444 21.8542Z" fill="#100F0D"/>
</g>
</svg>
