<svg width="86" height="28" viewBox="0 0 86 28" fill="none" xmlns="http://www.w3.org/2000/svg">
<path fill-rule="evenodd" clip-rule="evenodd" d="M14.789 0.483269L54.8918 8.74815L69.6324 11.7957L76.5113 13.2061C80.4421 14.0148 83.6725 15.9873 85.1675 18.4333C85.7529 19.4392 86.3488 20.9581 85.7529 22.6939C84.6552 25.8105 80.2853 28 75.0581 28C74.2009 28 73.2914 27.8521 72.3923 27.7436C71.995 27.6647 71.5664 27.7041 71.1691 27.5956L68.6078 27.0729L24.7311 17.9894L20.7689 17.1708L9.47825 14.8334C5.54743 14.0148 2.3275 12.0916 0.832533 9.6062C0.247091 8.63966 -0.348804 7.08137 0.247091 5.33568C0.947531 3.37302 3.03839 1.85417 5.74606 0.927087C6.72876 0.591756 7.82647 0.37478 8.96599 0.216978C9.63506 0.147939 10.231 0 10.9314 0C12.2382 0 13.5345 0.147938 14.789 0.404368V0.483269ZM64.5202 16.6876L76.4799 19.1335C76.5949 19.1729 76.7099 19.1729 76.8249 19.1729C77.5776 19.1729 78.2467 18.6897 78.4035 17.9894C78.6022 17.1708 78.0481 16.3522 77.149 16.1747L64.677 13.571C63.8198 13.3934 62.9521 13.9063 62.7534 14.7249C62.7116 14.9813 62.8371 15.1687 62.9102 15.3956C63.067 15.9084 63.4225 16.3917 64.0079 16.5396L64.5202 16.6481V16.6876Z" fill="#100F0D"/>
</svg>
