<svg width="86" height="28" viewBox="0 0 86 28" fill="none" xmlns="http://www.w3.org/2000/svg">
<path fill-rule="evenodd" clip-rule="evenodd" d="M71.2038 27.6643L9.48286 14.8886C9.32597 14.8491 9.16908 14.8096 9.01219 14.7405C7.87211 14.4838 6.77387 14.0691 5.79069 13.5853C3.6256 12.6276 1.81612 11.2454 0.832938 9.61636C0.247211 8.6488 -0.348974 7.08886 0.247211 5.34133C0.947992 3.37659 3.03987 1.85614 5.74885 0.928068C6.73204 0.592385 7.83028 0.375176 8.97035 0.217207C9.63975 0.148098 10.2359 0 10.9367 0C12.2441 0 13.5411 0.148097 14.7962 0.404795L41.4677 5.94358L44.6892 6.60508L76.5485 13.1805C76.7054 13.22 76.8623 13.2891 77.0296 13.3286C78.1697 13.5853 79.268 14 80.2511 14.4443C82.4162 15.4415 84.1839 16.7842 85.1671 18.4133C85.7528 19.3808 86.349 20.9408 85.7528 22.6883C85.052 24.653 82.9601 26.1735 80.2511 27.1016C78.6718 27.6248 76.9878 28 75.0947 28C73.9128 28 72.6995 27.842 71.5594 27.6248C71.4339 27.5853 71.3188 27.6248 71.2038 27.5853V27.6643ZM62.8676 15.2638C62.6689 16.0733 63.2128 16.8928 64.0809 17.0804L76.5171 19.6375C76.6322 19.677 76.7472 19.677 76.8623 19.677C76.9041 19.677 76.946 19.6375 77.0296 19.6375C77.6886 19.6079 78.2848 19.1537 78.4835 18.4922C78.6718 17.6728 78.1279 16.8533 77.2179 16.6756L77.0296 16.6361L64.7922 14.1086C63.924 13.921 63.0559 14.4443 62.8676 15.2638Z" fill="#100F0D"/>
</svg>
