<svg width="104" height="88" viewBox="0 0 104 88" fill="none" xmlns="http://www.w3.org/2000/svg">
<path fill-rule="evenodd" clip-rule="evenodd" d="M48.764 25.7834C48.8782 24.8691 49.7717 24.2467 50.7482 24.3634C51.7247 24.4704 52.3896 25.3068 52.2753 26.221C52.0467 27.9036 52.5454 29.5181 53.5635 30.8019C54.5816 32.0371 56.1087 32.9514 57.9059 33.1751C58.8824 33.2821 59.5473 34.1282 59.4226 35.0424C59.3084 35.9567 58.4149 36.5791 57.4384 36.4721C54.6647 36.1026 52.3169 34.7507 50.7482 32.8055C50.7482 32.7763 50.717 32.7763 50.717 32.7374C48.525 33.3599 44.3073 33.9434 41.4504 30.3935C40.8686 29.664 41.0245 28.6039 41.8036 28.0592C42.5828 27.5049 43.7255 27.6507 44.3073 28.3802C45.6786 30.0628 47.7459 29.9947 49.1172 29.7029C48.7224 28.458 48.6081 27.145 48.7951 25.7834H48.764ZM77.5922 52.8895C79.5453 51.061 80.7608 48.542 80.7608 45.7215C80.7608 42.9399 79.5453 40.4209 77.5922 38.5535C75.6392 36.725 72.9486 35.5871 69.9359 35.5871C68.9593 35.5871 68.1386 34.8576 68.1386 33.9045C68.1386 32.9903 68.9593 32.2219 69.9359 32.2219C73.9251 32.2219 77.5195 33.7197 80.0959 36.1706C82.7138 38.6216 84.3137 41.9867 84.3137 45.6826C84.3137 46.7135 84.1994 47.6958 83.9604 48.649C85.0512 48.9408 86.1836 49.1255 87.3991 49.1255C93.7257 49.1255 98.92 44.5544 99.429 38.7383C102.172 37.2016 104 34.3811 104 31.1618C104 27.359 101.424 24.1008 97.8292 22.8948C96.5826 25.0928 94.7022 26.8435 92.5206 28.0884C89.3521 29.8488 85.4876 30.4713 81.6126 29.557L81.4568 29.5181L81.2698 29.4111C80.4076 29.0027 80.0128 27.9814 80.4803 27.1742C80.875 26.4836 81.7373 26.1141 82.5164 26.2988C85.4045 26.9894 88.334 26.5225 90.7234 25.1998C93.1024 23.8868 94.9412 21.7277 95.6788 19.0239C96.0735 17.5942 96.1151 16.1353 95.8346 14.7445C94.4737 11.5933 91.8558 8.74359 88.334 6.83731C88.1782 6.80813 88.0224 6.76923 87.8665 6.73033C87.4822 6.62334 87.129 6.43855 86.89 6.14677C86.4641 5.96198 85.9966 5.73829 85.5291 5.5924C80.5218 3.80283 75.286 4.09461 71.1513 6.00088C69.0009 2.9275 65.2818 0.914235 61.064 0.914235C58.4877 0.914235 56.1087 1.68258 54.1556 2.9664C54.4985 3.80283 54.7374 4.67816 54.8932 5.56322C55.4854 8.95756 54.6958 12.5464 52.3896 15.5809C51.8909 16.2423 50.9456 16.4951 50.1664 16.0964C49.3042 15.6879 48.9198 14.6667 49.3873 13.8594L49.5431 13.6454C51.2988 11.3793 51.8909 8.6366 51.413 6.10787C51.1429 4.64898 50.5612 3.21927 49.6158 1.97436C47.6628 0.729443 45.3253 0 42.8217 0C36.4119 0 31.1449 4.67816 30.7502 10.611C28.6828 9.03537 26.0234 8.08223 23.1665 8.08223C22.699 8.08223 22.2731 8.12113 21.8368 8.16004C21.6498 8.30592 21.4524 8.41291 21.1823 8.45181C18.2839 9.14235 15.9776 10.8638 14.5752 13.0911C13.1727 15.328 12.6637 18.0707 13.4013 20.7745C14.1492 23.4783 15.9776 25.6375 18.367 26.9602C20.746 28.2732 23.6756 28.7498 26.574 28.0592L26.8025 28.0203H27.0415C28.018 28.0203 28.8387 28.7498 28.8387 29.7029C28.8387 30.5004 28.205 31.2007 27.4258 31.3466C23.6028 32.2219 19.7695 31.5995 16.6113 29.8488C13.4428 28.0884 10.9807 25.1998 10.0042 21.5818L9.96264 21.3581C9.80681 20.7745 9.73409 20.191 9.65098 19.6074C4.14504 20.6676 0 25.1998 0 30.6852C0 33.8656 1.41285 36.7931 3.70872 38.8453C1.99461 40.7807 0.976526 43.2706 0.976526 46.0133C0.976526 47.8028 1.41285 49.5243 2.23354 51.0221C2.38937 51.1388 2.50365 51.2458 2.61792 51.3917C4.34242 53.6578 6.91879 55.0486 9.65098 55.4863C12.3832 55.924 15.2816 55.3404 17.7021 53.7356C20.1227 52.1211 21.6082 49.7091 22.0757 47.1804C22.5432 44.6225 21.9199 41.9187 20.2058 39.6525L20.0396 39.4288C19.6136 38.5924 19.9668 37.6004 20.8291 37.2016C21.6082 36.832 22.5848 37.0557 23.0522 37.7073C25.3585 40.7515 26.1376 44.3307 25.5559 47.7347C24.9637 51.1388 22.9795 54.3192 19.7279 56.4783C19.302 56.7701 18.876 57.023 18.4086 57.2759C18.4086 57.3926 18.4086 57.4996 18.4086 57.6065C18.4086 63.8603 23.8002 68.908 30.4801 68.908C34.033 68.908 37.2326 67.4881 39.4246 65.183L39.5805 64.9982C39.7778 65.0663 39.9648 65.183 40.1311 65.2511C40.3181 71.359 38.2507 78.9355 33.794 88C44.2657 82.3006 51.8494 72.9735 56.5762 60.0964C56.8047 60.0964 57.0437 60.1353 57.3138 60.1353C60.7524 60.1353 63.7651 58.3749 65.4065 55.817C65.0532 53.5897 63.9624 51.6057 62.3522 50.0787C60.3992 48.2405 57.7085 47.1123 54.6958 47.1123C53.7193 47.1123 52.8986 46.3439 52.8986 45.4297C52.8986 44.5155 53.6881 43.7471 54.6958 43.7471C58.685 43.7471 62.2795 45.2449 64.8559 47.6958C67.1621 49.855 68.6892 52.7047 69.0009 55.924C69.0736 55.9629 69.1567 56.0018 69.2294 56.0407C69.4684 55.924 69.78 55.8559 70.0501 55.8559C73.0213 55.8559 75.7223 54.7179 77.7065 52.8895H77.5922ZM62.508 15.0363C61.9263 14.2971 62.0821 13.237 62.8613 12.6923C63.6508 12.1477 64.7831 12.2935 65.3649 13.023C66.7362 14.7056 68.8035 14.6278 70.1748 14.336C69.78 13.0911 69.6658 11.7781 69.8528 10.4262C69.9774 9.51194 70.8708 8.88948 71.8474 8.99646C72.8239 9.10345 73.4888 9.9496 73.3745 10.8638C73.1356 12.5464 73.6446 14.1512 74.6627 15.435C75.6807 16.6799 77.1975 17.5553 78.9947 17.8179C79.9816 17.9248 80.6361 18.7613 80.5218 19.6755C80.4076 20.5897 79.5037 21.2122 78.5272 21.1052C75.7535 20.7356 73.416 19.3837 71.8474 17.4483C71.8474 17.4094 71.8162 17.4094 71.8162 17.3705C69.6242 17.9929 65.4065 18.5765 62.5496 15.0363H62.508ZM32.8175 45.8285C35.5913 46.1981 37.9391 47.55 39.4974 49.4854C39.4974 49.5243 39.5389 49.5243 39.5389 49.5632C41.7309 48.9408 45.9487 48.3572 48.7951 51.9072C49.3873 52.6366 49.2314 53.6967 48.4523 54.2414C47.6628 54.7958 46.5304 54.6499 45.9487 53.9107C44.5774 52.2281 42.51 52.3059 41.1387 52.5977C41.5335 53.8426 41.6478 55.1556 41.4504 56.5075C41.3361 57.4217 40.4427 58.0442 39.4662 57.9372C38.4897 57.8302 37.8248 56.9841 37.9391 56.0698C38.1676 54.3873 37.669 52.7825 36.6509 51.4987C35.6328 50.2538 34.1057 49.3784 32.3085 49.1255C31.3319 49.0088 30.6671 48.1724 30.7917 47.2582C30.906 46.3439 31.7994 45.7215 32.7863 45.8285H32.8175Z" fill="#100F0D"/>
</svg>
