<svg width="86" height="28" viewBox="0 0 86 28" fill="none" xmlns="http://www.w3.org/2000/svg">
<path fill-rule="evenodd" clip-rule="evenodd" d="M21.7162 1.85352L70.0312 11.8704L73.6481 12.6099L76.5123 13.2014C80.4113 14.0197 83.6727 15.9521 85.1676 18.4366C85.7529 19.4324 86.3488 20.9507 85.7529 22.6958C84.6553 25.8113 80.2859 28 75.1011 28C74.4321 28 73.763 27.8521 73.094 27.7732C72.5087 27.7042 71.8396 27.7042 71.2124 27.5859L69.8744 27.2901L15.068 15.9521L11.9215 15.3211L9.48592 14.7986C5.55549 13.9803 2.33588 12.0577 0.841067 9.57324C-0.0265517 8.16338 -0.225164 6.67465 0.255684 5.30423C1.35328 2.18873 5.71229 0 10.9076 0C12.2038 0 13.5 0.147887 14.7544 0.414084L18.1412 1.11408L21.6744 1.85352H21.7162ZM64.7628 13.5366C63.8952 13.3493 63.0275 13.8718 62.8394 14.6901C62.6408 15.538 63.1843 16.3169 64.052 16.5042L71.1288 17.9535L74.4321 18.6141L76.4809 19.0577C76.5959 19.0972 76.7109 19.0972 76.8259 19.0972C77.5785 19.0972 78.2475 18.6141 78.4043 17.9141C78.6029 17.0958 78.0489 16.2775 77.1499 16.1L74.0348 15.469L70.7421 14.7592L64.6792 13.5366H64.7628Z" fill="#100F0D"/>
</svg>
