<svg xmlns="http://www.w3.org/2000/svg" xmlns:xlink="http://www.w3.org/1999/xlink" width="150" zoomAndPan="magnify" viewBox="0 0 112.5 112.499997" height="150" preserveAspectRatio="xMidYMid meet" version="1.0"><defs><clipPath id="25d7daa7b0"><path d="M 0 0 L 112.003906 0 L 112.003906 112.003906 L 0 112.003906 Z M 0 0 " clip-rule="nonzero"/></clipPath><clipPath id="9acfdb8b27"><path d="M 44 101 L 66 101 L 66 111.804688 L 44 111.804688 Z M 44 101 " clip-rule="nonzero"/></clipPath><clipPath id="081fb430f9"><path d="M 26.71875 17 L 84.960938 17 L 84.960938 84 L 26.71875 84 Z M 26.71875 17 " clip-rule="nonzero"/></clipPath><clipPath id="508347028b"><path d="M 40 0.550781 L 72 0.550781 L 72 16 L 40 16 Z M 40 0.550781 " clip-rule="nonzero"/></clipPath></defs><g clip-path="url(#25d7daa7b0)"><path fill="#ffffff" d="M 0 0 L 112.003906 0 L 112.003906 112.003906 L 0 112.003906 Z M 0 0 " fill-opacity="1" fill-rule="nonzero"/><path fill="#ffffff" d="M 0 0 L 112.003906 0 L 112.003906 112.003906 L 0 112.003906 Z M 0 0 " fill-opacity="1" fill-rule="nonzero"/></g><path fill="#100f0d" d="M 66.097656 89.722656 L 43.046875 84.667969 C 42.988281 84.652344 42.929688 84.636719 42.871094 84.609375 C 42.445312 84.507812 42.035156 84.34375 41.667969 84.152344 C 40.859375 83.773438 40.183594 83.226562 39.816406 82.582031 C 39.597656 82.199219 39.375 81.582031 39.597656 80.890625 C 39.859375 80.113281 40.640625 79.511719 41.652344 79.144531 C 42.019531 79.011719 42.429688 78.925781 42.855469 78.863281 C 43.105469 78.835938 43.328125 78.777344 43.589844 78.777344 C 44.078125 78.777344 44.5625 78.835938 45.03125 78.9375 L 54.992188 81.128906 L 56.195312 81.390625 L 68.09375 83.992188 C 68.152344 84.007812 68.210938 84.035156 68.273438 84.050781 C 68.699219 84.152344 69.109375 84.316406 69.476562 84.492188 C 70.285156 84.886719 70.945312 85.417969 71.3125 86.0625 C 71.53125 86.445312 71.753906 87.0625 71.53125 87.753906 C 71.269531 88.53125 70.488281 89.132812 69.476562 89.5 C 68.886719 89.707031 68.257812 89.855469 67.550781 89.855469 C 67.109375 89.855469 66.65625 89.792969 66.230469 89.707031 C 66.183594 89.691406 66.140625 89.707031 66.097656 89.691406 Z M 62.984375 84.816406 C 62.910156 85.136719 63.113281 85.460938 63.4375 85.535156 L 68.082031 86.546875 C 68.125 86.5625 68.167969 86.5625 68.210938 86.5625 C 68.226562 86.5625 68.242188 86.546875 68.273438 86.546875 C 68.519531 86.535156 68.742188 86.355469 68.816406 86.09375 C 68.886719 85.769531 68.683594 85.445312 68.34375 85.375 L 68.273438 85.359375 L 63.703125 84.359375 C 63.378906 84.285156 63.054688 84.492188 62.984375 84.816406 Z M 62.984375 84.816406 " fill-opacity="1" fill-rule="evenodd"/><path fill="#100f0d" d="M 45.03125 86.460938 L 60.015625 89.734375 L 65.523438 90.941406 L 68.09375 91.5 C 69.5625 91.820312 70.769531 92.601562 71.328125 93.570312 C 71.546875 93.96875 71.769531 94.570312 71.546875 95.257812 C 71.136719 96.492188 69.503906 97.359375 67.550781 97.359375 C 67.230469 97.359375 66.890625 97.300781 66.554688 97.257812 C 66.40625 97.226562 66.246094 97.242188 66.097656 97.199219 L 65.140625 96.992188 L 48.746094 93.394531 L 47.265625 93.070312 L 43.046875 92.144531 C 41.578125 91.820312 40.375 91.058594 39.816406 90.074219 C 39.597656 89.691406 39.375 89.074219 39.597656 88.382812 C 39.859375 87.605469 40.640625 87.003906 41.652344 86.636719 C 42.019531 86.503906 42.429688 86.417969 42.855469 86.355469 C 43.105469 86.328125 43.328125 86.269531 43.589844 86.269531 C 44.078125 86.269531 44.5625 86.328125 45.03125 86.429688 Z M 63.613281 92.878906 L 68.082031 93.847656 C 68.125 93.863281 68.167969 93.863281 68.210938 93.863281 C 68.492188 93.863281 68.742188 93.671875 68.800781 93.394531 C 68.875 93.070312 68.667969 92.746094 68.332031 92.675781 L 63.671875 91.644531 C 63.351562 91.574219 63.027344 91.777344 62.953125 92.101562 C 62.9375 92.203125 62.984375 92.277344 63.011719 92.367188 C 63.070312 92.570312 63.203125 92.761719 63.421875 92.820312 L 63.613281 92.863281 Z M 63.613281 92.878906 " fill-opacity="1" fill-rule="evenodd"/><path fill="#100f0d" d="M 47.617188 94.523438 L 65.671875 98.492188 L 67.023438 98.785156 L 68.09375 99.019531 C 69.550781 99.34375 70.769531 100.109375 71.328125 101.09375 C 71.546875 101.488281 71.769531 102.089844 71.546875 102.78125 C 71.136719 104.015625 69.503906 104.882812 67.566406 104.882812 C 67.316406 104.882812 67.066406 104.824219 66.816406 104.792969 C 66.597656 104.765625 66.347656 104.765625 66.113281 104.71875 L 65.613281 104.601562 L 45.132812 100.109375 L 43.957031 99.859375 L 43.046875 99.652344 C 41.578125 99.328125 40.375 98.566406 39.816406 97.582031 C 39.492188 97.023438 39.417969 96.433594 39.597656 95.890625 C 40.007812 94.65625 41.636719 93.789062 43.578125 93.789062 C 44.0625 93.789062 44.546875 93.847656 45.015625 93.953125 L 46.28125 94.230469 L 47.601562 94.523438 Z M 63.703125 99.152344 C 63.378906 99.078125 63.054688 99.285156 62.984375 99.609375 C 62.910156 99.945312 63.113281 100.253906 63.4375 100.328125 L 66.082031 100.902344 L 67.316406 101.164062 L 68.082031 101.339844 C 68.125 101.355469 68.167969 101.355469 68.210938 101.355469 C 68.492188 101.355469 68.742188 101.164062 68.800781 100.886719 C 68.875 100.5625 68.667969 100.238281 68.332031 100.167969 L 67.167969 99.917969 L 65.9375 99.636719 L 63.671875 99.152344 Z M 63.703125 99.152344 " fill-opacity="1" fill-rule="evenodd"/><g clip-path="url(#9acfdb8b27)"><path fill="#100f0d" d="M 45 101.328125 L 65.1875 105.75 C 63.527344 109.421875 59.855469 111.992188 55.5625 111.992188 C 49.730469 111.992188 44.988281 107.246094 44.988281 101.414062 C 44.988281 101.386719 45 101.355469 45 101.328125 Z M 53.714844 109.730469 C 53.816406 109.40625 53.625 109.070312 53.316406 108.980469 C 50.878906 108.246094 48.9375 106.378906 48.117188 103.972656 C 48 103.664062 47.660156 103.5 47.351562 103.589844 C 47.042969 103.691406 46.867188 104.042969 46.96875 104.351562 C 47.925781 107.128906 50.171875 109.289062 52.980469 110.125 C 53.039062 110.140625 53.097656 110.15625 53.15625 110.15625 C 53.417969 110.15625 53.65625 109.996094 53.726562 109.714844 Z M 53.714844 109.730469 " fill-opacity="1" fill-rule="evenodd"/></g><g clip-path="url(#081fb430f9)"><path fill="#100f0d" d="M 73.355469 66.304688 C 70.34375 70.550781 67.757812 74.222656 67.566406 77.101562 L 67.566406 82.539062 L 68.460938 82.730469 L 69.667969 82.992188 L 71.046875 83.300781 L 71.046875 77.21875 C 71.121094 76.339844 71.722656 75.089844 72.605469 73.621094 C 73.558594 72.035156 74.851562 70.199219 76.191406 68.300781 C 76.601562 67.730469 76.9375 67.230469 77.175781 66.90625 C 77.554688 66.363281 77.894531 65.878906 78.160156 65.496094 C 79.714844 63.234375 81.890625 59.664062 83.417969 55.582031 C 84.488281 52.703125 85.253906 49.558594 85.253906 46.441406 C 85.253906 38.378906 81.976562 31.0625 76.675781 25.773438 C 71.371094 20.46875 64.070312 17.195312 55.992188 17.195312 C 47.925781 17.195312 40.609375 20.46875 35.320312 25.773438 C 30.015625 31.078125 26.742188 38.378906 26.742188 46.441406 C 26.742188 49.574219 27.503906 52.703125 28.578125 55.59375 C 30.105469 59.695312 32.28125 63.25 33.835938 65.511719 C 34.070312 65.847656 34.410156 66.347656 34.820312 66.921875 C 35.042969 67.246094 35.410156 67.746094 35.804688 68.316406 C 36.878906 69.832031 37.921875 71.3125 38.757812 72.605469 C 39.59375 73.898438 40.257812 75.089844 40.640625 76.101562 L 40.859375 76.675781 L 41.460938 76.808594 L 42.828125 77.101562 L 44.679688 77.511719 L 44.164062 75.691406 C 43.78125 74.355469 43.035156 72.886719 42.035156 71.285156 C 41.066406 69.714844 39.890625 68.066406 38.65625 66.304688 C 38.246094 65.71875 37.90625 65.246094 37.6875 64.9375 C 37.421875 64.554688 37.097656 64.101562 36.730469 63.558594 C 35.511719 61.78125 33.882812 59.152344 32.558594 56.109375 C 31.25 53.113281 30.238281 49.75 30.253906 46.441406 C 30.253906 39.332031 33.148438 32.882812 37.804688 28.226562 C 42.460938 23.570312 48.910156 20.675781 56.019531 20.675781 C 63.128906 20.675781 69.5625 23.570312 74.234375 28.226562 C 78.90625 32.898438 81.800781 39.347656 81.800781 46.441406 C 81.800781 49.144531 81.125 51.894531 80.171875 54.433594 C 78.773438 58.152344 76.746094 61.441406 75.324219 63.542969 C 74.898438 64.160156 74.28125 65.027344 73.675781 65.894531 L 73.398438 66.304688 Z M 73.355469 66.304688 " fill-opacity="1" fill-rule="nonzero"/></g><g clip-path="url(#508347028b)"><path fill="#fdb11d" d="M 56.476562 13.667969 C 57.679688 13.667969 58.664062 12.683594 58.664062 11.480469 L 58.664062 2.738281 C 58.664062 1.535156 57.679688 0.550781 56.476562 0.550781 C 55.269531 0.550781 54.285156 1.535156 54.285156 2.738281 L 54.285156 11.480469 C 54.285156 12.683594 55.269531 13.667969 56.476562 13.667969 Z M 64.835938 15.359375 C 63.71875 14.902344 63.1875 13.609375 63.644531 12.507812 L 66.980469 4.429688 C 67.433594 3.3125 68.726562 2.78125 69.828125 3.238281 C 70.945312 3.695312 71.472656 4.988281 71.019531 6.089844 L 67.683594 14.167969 C 67.230469 15.285156 65.9375 15.8125 64.835938 15.359375 Z M 47.148438 15.738281 C 48.261719 15.285156 48.792969 13.992188 48.335938 12.890625 L 45 4.808594 C 44.546875 3.695312 43.253906 3.164062 42.152344 3.621094 C 41.035156 4.074219 40.507812 5.367188 40.960938 6.46875 L 44.296875 14.550781 C 44.753906 15.667969 46.042969 16.195312 47.148438 15.738281 Z M 47.148438 15.738281 " fill-opacity="1" fill-rule="evenodd"/></g><path fill="#fdb11d" d="M 54.816406 39.140625 C 54.859375 38.773438 55.195312 38.523438 55.5625 38.570312 C 55.929688 38.613281 56.179688 38.949219 56.136719 39.316406 C 56.050781 39.992188 56.238281 40.640625 56.621094 41.15625 C 57.003906 41.652344 57.578125 42.019531 58.253906 42.109375 C 58.621094 42.152344 58.871094 42.492188 58.824219 42.859375 C 58.78125 43.226562 58.445312 43.476562 58.078125 43.433594 C 57.035156 43.285156 56.152344 42.742188 55.5625 41.960938 C 55.5625 41.949219 55.550781 41.949219 55.550781 41.933594 C 54.726562 42.183594 53.140625 42.417969 52.066406 40.992188 C 51.847656 40.699219 51.90625 40.273438 52.199219 40.054688 C 52.492188 39.832031 52.921875 39.890625 53.140625 40.183594 C 53.65625 40.859375 54.433594 40.832031 54.949219 40.714844 C 54.800781 40.214844 54.757812 39.6875 54.828125 39.140625 Z M 67.039062 40.640625 Z M 56.167969 35.074219 Z M 55.019531 34.382812 Z M 43.046875 50.394531 Z M 43.929688 44.636719 Z M 45.074219 43.945312 Z M 43.828125 51.480469 Z M 65.65625 50.027344 C 66.390625 49.292969 66.847656 48.28125 66.847656 47.148438 C 66.847656 46.03125 66.390625 45.019531 65.65625 44.269531 C 64.921875 43.535156 63.910156 43.078125 62.777344 43.078125 C 62.410156 43.078125 62.101562 42.785156 62.101562 42.402344 C 62.101562 42.035156 62.410156 41.726562 62.777344 41.726562 C 64.277344 41.726562 65.628906 42.328125 66.597656 43.3125 C 67.582031 44.296875 68.183594 45.648438 68.183594 47.132812 C 68.183594 47.546875 68.140625 47.941406 68.050781 48.324219 C 68.460938 48.441406 68.886719 48.515625 69.34375 48.515625 C 71.722656 48.515625 73.675781 46.679688 73.867188 44.34375 C 74.898438 43.726562 75.585938 42.59375 75.585938 41.300781 C 75.585938 39.773438 74.617188 38.464844 73.265625 37.980469 C 72.796875 38.863281 72.089844 39.566406 71.269531 40.066406 C 70.078125 40.773438 68.625 41.023438 67.167969 40.65625 L 67.109375 40.640625 L 67.039062 40.597656 C 66.714844 40.433594 66.566406 40.023438 66.742188 39.699219 C 66.890625 39.421875 67.214844 39.273438 67.507812 39.347656 C 68.59375 39.625 69.695312 39.4375 70.59375 38.90625 C 71.488281 38.378906 72.179688 37.511719 72.457031 36.425781 C 72.605469 35.851562 72.621094 35.265625 72.515625 34.707031 C 72.003906 33.441406 71.019531 32.296875 69.695312 31.53125 C 69.636719 31.519531 69.578125 31.503906 69.519531 31.488281 C 69.375 31.445312 69.242188 31.371094 69.152344 31.253906 C 68.992188 31.179688 68.816406 31.089844 68.640625 31.03125 C 66.757812 30.3125 64.789062 30.429688 63.234375 31.195312 C 62.425781 29.960938 61.027344 29.152344 59.441406 29.152344 C 58.472656 29.152344 57.578125 29.460938 56.84375 29.976562 C 56.972656 30.3125 57.0625 30.664062 57.121094 31.019531 C 57.34375 32.382812 57.046875 33.824219 56.179688 35.042969 C 55.992188 35.308594 55.636719 35.410156 55.34375 35.25 C 55.019531 35.085938 54.875 34.675781 55.050781 34.351562 L 55.109375 34.265625 C 55.769531 33.355469 55.992188 32.253906 55.8125 31.238281 C 55.710938 30.652344 55.492188 30.078125 55.136719 29.578125 C 54.402344 29.078125 53.523438 28.785156 52.582031 28.785156 C 50.171875 28.785156 48.191406 30.664062 48.042969 33.046875 C 47.265625 32.414062 46.265625 32.03125 45.191406 32.03125 C 45.015625 32.03125 44.855469 32.046875 44.691406 32.0625 C 44.621094 32.121094 44.546875 32.164062 44.445312 32.179688 C 43.355469 32.457031 42.488281 33.148438 41.960938 34.042969 C 41.433594 34.941406 41.242188 36.042969 41.519531 37.128906 C 41.800781 38.214844 42.488281 39.082031 43.386719 39.613281 C 44.28125 40.140625 45.382812 40.332031 46.472656 40.054688 L 46.558594 40.039062 L 46.648438 40.039062 C 47.015625 40.039062 47.324219 40.332031 47.324219 40.714844 C 47.324219 41.035156 47.085938 41.316406 46.792969 41.375 C 45.355469 41.726562 43.914062 41.476562 42.726562 40.773438 C 41.535156 40.066406 40.609375 38.90625 40.242188 37.453125 L 40.226562 37.363281 C 40.167969 37.128906 40.140625 36.894531 40.109375 36.660156 C 38.039062 37.085938 36.480469 38.90625 36.480469 41.109375 C 36.480469 42.386719 37.011719 43.5625 37.875 44.386719 C 37.230469 45.164062 36.847656 46.164062 36.847656 47.265625 C 36.847656 47.984375 37.011719 48.675781 37.320312 49.277344 C 37.378906 49.324219 37.421875 49.367188 37.464844 49.425781 C 38.113281 50.335938 39.082031 50.894531 40.109375 51.070312 C 41.136719 51.246094 42.226562 51.011719 43.136719 50.367188 C 44.046875 49.71875 44.605469 48.75 44.78125 47.734375 C 44.957031 46.707031 44.722656 45.621094 44.078125 44.710938 L 44.015625 44.621094 C 43.855469 44.285156 43.988281 43.886719 44.3125 43.726562 C 44.605469 43.578125 44.972656 43.667969 45.148438 43.929688 C 46.015625 45.152344 46.308594 46.589844 46.089844 47.957031 C 45.867188 49.324219 45.121094 50.601562 43.898438 51.46875 C 43.738281 51.585938 43.578125 51.6875 43.402344 51.789062 C 43.402344 51.835938 43.402344 51.878906 43.402344 51.921875 C 43.402344 54.433594 45.429688 56.460938 47.941406 56.460938 C 49.277344 56.460938 50.480469 55.890625 51.304688 54.964844 L 51.363281 54.890625 C 51.4375 54.917969 51.507812 54.964844 51.570312 54.992188 C 51.640625 57.445312 50.863281 60.488281 49.1875 64.128906 C 53.125 61.839844 55.976562 58.09375 57.753906 52.921875 C 57.839844 52.921875 57.929688 52.9375 58.03125 52.9375 C 59.324219 52.9375 60.457031 52.230469 61.074219 51.203125 C 60.941406 50.308594 60.53125 49.511719 59.925781 48.898438 C 59.191406 48.160156 58.179688 47.707031 57.046875 47.707031 C 56.679688 47.707031 56.371094 47.398438 56.371094 47.03125 C 56.371094 46.664062 56.667969 46.355469 57.046875 46.355469 C 58.546875 46.355469 59.898438 46.957031 60.867188 47.941406 C 61.734375 48.808594 62.308594 49.953125 62.425781 51.246094 C 62.453125 51.261719 62.484375 51.277344 62.511719 51.292969 C 62.601562 51.246094 62.71875 51.21875 62.820312 51.21875 C 63.9375 51.21875 64.953125 50.761719 65.699219 50.027344 Z M 59.984375 34.824219 C 59.765625 34.527344 59.824219 34.101562 60.117188 33.882812 C 60.414062 33.664062 60.839844 33.722656 61.058594 34.015625 C 61.574219 34.691406 62.351562 34.660156 62.867188 34.542969 C 62.71875 34.042969 62.675781 33.515625 62.746094 32.972656 C 62.792969 32.605469 63.128906 32.355469 63.496094 32.398438 C 63.863281 32.441406 64.113281 32.78125 64.070312 33.148438 C 63.980469 33.824219 64.171875 34.46875 64.554688 34.984375 C 64.9375 35.484375 65.507812 35.835938 66.183594 35.941406 C 66.554688 35.984375 66.800781 36.320312 66.757812 36.6875 C 66.714844 37.054688 66.375 37.304688 66.007812 37.261719 C 64.964844 37.113281 64.085938 36.570312 63.496094 35.792969 C 63.496094 35.777344 63.484375 35.777344 63.484375 35.761719 C 62.660156 36.011719 61.074219 36.246094 60 34.824219 Z M 48.820312 47.191406 C 49.863281 47.339844 50.746094 47.882812 51.332031 48.660156 C 51.332031 48.675781 51.347656 48.675781 51.347656 48.691406 C 52.171875 48.441406 53.757812 48.207031 54.828125 49.632812 C 55.050781 49.925781 54.992188 50.351562 54.699219 50.570312 C 54.402344 50.792969 53.976562 50.734375 53.757812 50.4375 C 53.242188 49.761719 52.464844 49.792969 51.949219 49.910156 C 52.097656 50.410156 52.140625 50.9375 52.066406 51.480469 C 52.023438 51.847656 51.6875 52.097656 51.320312 52.054688 C 50.953125 52.011719 50.703125 51.671875 50.746094 51.304688 C 50.832031 50.628906 50.644531 49.984375 50.261719 49.46875 C 49.878906 48.96875 49.304688 48.617188 48.628906 48.515625 C 48.261719 48.46875 48.011719 48.132812 48.058594 47.765625 C 48.101562 47.398438 48.4375 47.148438 48.808594 47.191406 Z M 48.820312 47.191406 " fill-opacity="1" fill-rule="evenodd"/></svg>